<svg width="18" height="14" viewBox="0 0 18 14" fill="none" xmlns="http://www.w3.org/2000/svg">
<path d="M3.37435 0.333984H14.6243C16.0685 0.333984 17.2487 1.46436 17.3284 2.88863L17.3327 3.04232V10.959C17.3327 12.4032 16.2023 13.5834 14.778 13.663L14.6243 13.6673H3.37435C1.93016 13.6673 0.749977 12.5369 0.670303 11.1127L0.666016 10.959V3.04232C0.666016 1.59812 1.79639 0.417946 3.22066 0.338272L3.37435 0.333984H14.6243H3.37435ZM16.0827 4.81148L9.29044 8.38706C9.13426 8.46926 8.95196 8.481 8.78832 8.42229L8.70826 8.38706L1.91602 4.81232V10.959C1.91602 11.7241 2.50527 12.3516 3.25474 12.4125L3.37435 12.4173H14.6243C15.3895 12.4173 16.017 11.8281 16.0778 11.0786L16.0827 10.959V4.81148ZM14.6243 1.58398H3.37435C2.6092 1.58398 1.98169 2.17324 1.92085 2.92271L1.91602 3.04232V3.39982L8.99935 7.1277L16.0827 3.39898V3.04232C16.0827 2.27717 15.4934 1.64966 14.744 1.58882L14.6243 1.58398Z" fill="#131900"/>
</svg>