<svg width="20" height="20" viewBox="0 0 20 20" fill="none" xmlns="http://www.w3.org/2000/svg">
<path d="M18.8 10.209C18.8 9.55898 18.7417 8.93398 18.6333 8.33398H10V11.8798H14.9333C14.7208 13.0257 14.075 13.9965 13.1042 14.6465V16.9465H16.0667C17.8 15.3506 18.8 13.0007 18.8 10.209Z" fill="#4285F4"/>
<path d="M10.0003 19.1672C12.4753 19.1672 14.5503 18.3464 16.0669 16.9464L13.1044 14.6464C12.2836 15.1964 11.2336 15.5214 10.0003 15.5214C7.61276 15.5214 5.59193 13.9089 4.87109 11.7422H1.80859V14.1172C3.31693 17.113 6.41693 19.1672 10.0003 19.1672Z" fill="#34A853"/>
<path d="M4.87149 11.7411C4.68815 11.1911 4.58399 10.6036 4.58399 9.99948C4.58399 9.39531 4.68815 8.80781 4.87149 8.25781V5.88281H1.80899C1.16732 7.16019 0.833419 8.56999 0.833985 9.99948C0.833985 11.4786 1.18815 12.8786 1.80899 14.1161L4.87149 11.7411Z" fill="#FBBC05"/>
<path d="M10.0003 4.47982C11.3461 4.47982 12.5544 4.94232 13.5044 5.85065L16.1336 3.22148C14.5461 1.74232 12.4711 0.833984 10.0003 0.833984C6.41693 0.833984 3.31693 2.88815 1.80859 5.88399L4.87109 8.25899C5.59193 6.09232 7.61276 4.47982 10.0003 4.47982Z" fill="#EA4335"/>
</svg>