<svg width="14" height="18" viewBox="0 0 14 18" fill="none" xmlns="http://www.w3.org/2000/svg">
<path d="M7.00065 0.666016C8.8416 0.666016 10.334 2.1584 10.334 3.99935V5.66602H11.7923C12.8279 5.66602 13.6673 6.50548 13.6673 7.54102V15.4577C13.6673 16.4932 12.8279 17.3327 11.7923 17.3327H2.20898C1.17345 17.3327 0.333984 16.4932 0.333984 15.4577V7.54102C0.333984 6.50548 1.17345 5.66602 2.20898 5.66602H3.66732V3.99935C3.66732 2.1584 5.1597 0.666016 7.00065 0.666016ZM11.7923 6.91602H2.20898C1.86381 6.91602 1.58398 7.19584 1.58398 7.54102V15.4577C1.58398 15.8029 1.86381 16.0827 2.20898 16.0827H11.7923C12.1375 16.0827 12.4173 15.8029 12.4173 15.4577V7.54102C12.4173 7.19584 12.1375 6.91602 11.7923 6.91602ZM7.00075 10.2493C7.69111 10.2493 8.25075 10.809 8.25075 11.4993C8.25075 12.1897 7.69111 12.7493 7.00075 12.7493C6.3104 12.7493 5.75075 12.1897 5.75075 11.4993C5.75075 10.809 6.3104 10.2493 7.00075 10.2493ZM7.00065 1.91602C5.85006 1.91602 4.91732 2.84876 4.91732 3.99935V5.66602H9.08398V3.99935C9.08398 2.84876 8.15124 1.91602 7.00065 1.91602Z" fill="#131900"/>
</svg>