<svg width="300" height="301" viewBox="0 0 394 395" fill="none" xmlns="http://www.w3.org/2000/svg">
<path d="M331.587 40.7063C324.027 41.2576 318.042 47.1638 317.254 54.6451C316.467 47.1638 310.403 41.2576 302.922 40.7063C310.482 40.1551 316.467 34.2488 317.254 26.7676C317.963 34.3276 324.027 40.2338 331.587 40.7063Z" fill="#045B4E"/>
<path d="M306.781 28.5008C302.765 28.8158 299.536 31.9658 299.143 35.982C298.749 31.9658 295.52 28.8158 291.504 28.5008C295.52 28.1858 298.749 25.0358 299.143 21.0195C299.536 25.0358 302.765 28.1858 306.781 28.5008Z" fill="#045B4E"/>
<path d="M64.8615 183.954C60.8452 184.269 57.6165 187.419 57.2227 191.435C56.829 187.419 53.6002 184.269 49.584 183.954C53.6002 183.639 56.829 180.489 57.2227 176.473C57.3802 178.363 58.2465 180.174 59.5852 181.513C61.0027 182.93 62.8927 183.796 64.8615 183.954Z" fill="#045B4E"/>
<path d="M246.846 102.53L252.831 90.0872C252.831 90.0872 252.673 78.1172 255.666 73.7072C258.658 69.2972 265.194 68.4309 265.194 68.4309L275.432 53.6259L286.536 43.7822C291.103 39.7659 298.112 43.3097 293.859 49.8459L286.536 58.2722L283.071 68.0372C283.071 68.0372 292.836 70.0059 291.733 77.2509C291.733 77.2509 298.742 78.5109 298.663 85.7559C298.663 85.7559 303.231 88.5909 302.837 95.8359L299.214 112.216C297.876 114.972 291.339 116.468 290.158 106.231C290.158 106.231 287.323 112.767 280.157 114.185L274.881 125.21L246.846 102.53Z" fill="#FFC2A7"/>
<path d="M277.715 96.5423H277.557C277.006 96.4636 276.691 95.9911 276.77 95.4398C277.164 92.8411 276.455 90.1636 274.722 88.1161C272.439 85.1236 273.069 80.8711 276.061 78.6661L277.479 77.6423C278.424 75.2798 278.581 73.2323 277.951 71.5786C277.479 70.4761 276.612 69.5311 275.51 68.9798L265.194 69.4523C264.721 69.4523 264.249 69.1373 264.17 68.5861C264.17 68.5861 264.17 68.5861 264.17 68.5073C264.17 67.9561 264.564 67.5623 265.115 67.5623L275.667 67.0898C275.825 67.0898 275.904 67.0898 276.061 67.1686C277.715 67.8773 278.975 69.2161 279.684 70.7911C280.629 72.9961 280.392 75.5948 279.132 78.5873C279.054 78.7448 278.975 78.9023 278.817 78.9811L277.242 80.1623C275.116 81.7373 274.644 84.8086 276.219 86.9348C278.187 89.3761 279.054 92.6048 278.581 95.7548C278.581 96.2273 278.187 96.5423 277.715 96.5423Z" fill="#D88260"/>
<path d="M281.34 104.813C280.947 104.813 280.474 104.734 280.08 104.655C277.639 104.025 275.513 101.348 276.458 96.7801V96.7013L280.002 85.6763L281.655 72.4463C281.734 71.8951 282.207 71.5801 282.679 71.5801C283.152 71.5801 283.545 72.1313 283.545 72.6038L281.892 85.9126C281.892 85.9913 281.892 85.9913 281.892 86.0701L278.348 97.0951C277.639 100.56 279.135 102.293 280.632 102.686C282.128 103.08 283.624 102.293 284.097 100.796L284.175 100.718L290.16 87.9601L290.948 77.0926C291.027 76.5413 291.42 76.1476 291.972 76.2263C292.523 76.2263 292.917 76.6988 292.838 77.2501L292.05 88.2751C292.05 88.3538 292.05 88.5113 291.972 88.5901L285.908 101.426C285.199 103.474 283.388 104.813 281.34 104.813Z" fill="#D88260"/>
<path d="M288.034 106.072C286.301 106.072 284.726 105.206 283.309 103.473C282.915 103.079 282.915 102.528 283.309 102.134C283.703 101.741 284.254 101.741 284.648 102.134L284.726 102.213C285.829 103.473 286.931 104.103 288.113 104.103C289.924 104.103 291.499 102.371 291.814 101.977L297.326 86.7781C297.563 86.3056 298.114 86.0693 298.586 86.3056C299.059 86.4631 299.295 87.0143 299.138 87.4868L293.546 102.843C293.546 102.922 293.468 103.001 293.389 103.079C293.31 103.158 291.105 105.993 288.113 106.072H288.034Z" fill="#D88260"/>
<path d="M278.503 115.207C277.401 115.207 275.983 115.207 274.566 115.128C274.014 115.05 273.621 114.656 273.699 114.105C273.778 113.632 274.093 113.317 274.566 113.238C277.322 113.317 280.157 113.317 280.157 113.317C280.708 113.317 281.102 113.711 281.102 114.262C281.102 114.813 280.708 115.207 280.157 115.207C280.236 115.207 279.527 115.207 278.503 115.207Z" fill="#D88260"/>
<path d="M254.564 98.5909C254.328 98.5909 254.092 98.5121 253.934 98.3546C250.942 95.7559 251.808 90.2434 251.887 89.9284C251.966 89.3771 252.438 89.0621 252.989 89.1409C253.541 89.2196 253.856 89.6921 253.777 90.2434C253.541 91.5821 253.383 95.2834 255.194 96.8584C255.588 97.1734 255.667 97.8034 255.273 98.1971C255.116 98.4334 254.879 98.5909 254.564 98.5909Z" fill="#D88260"/>
<path d="M159.04 143.319L176.916 145.839C186.13 147.099 195.028 141.902 198.336 133.239L211.251 99.6919C211.251 99.6919 218.102 85.4381 197.942 81.4219L156.362 75.5156C156.362 75.5156 148.881 75.6731 146.125 96.3844L142.03 120.088C140.14 130.956 147.463 141.272 158.331 143.162C158.646 143.319 158.803 143.319 159.04 143.319Z" fill="#00BB8E"/>
<path d="M196.92 81.7363L204.401 82.7601C204.401 82.7601 210.701 85.5951 217.474 94.8876L236.216 115.914L246.926 102.526L274.568 124.498L259.211 169.464C259.211 169.464 229.05 194.743 210.701 169.779L189.281 143.004L196.92 81.7363Z" fill="#00BB8E"/>
<path d="M328.115 233.175L272.675 178.05C272.675 178.05 254.799 161.828 223.142 160.41L177.23 161.591L192.193 218.291L230.387 227.978L286.772 274.44L328.115 233.175Z" fill="#055F51"/>
<path d="M148.725 258.533C142.346 262.707 140.535 266.959 140.535 266.959C140.535 266.959 174.634 337.126 179.674 313.501C180.146 307.594 191.565 291.293 200.936 281.213C186.446 267.983 161.798 262.943 148.725 258.533Z" fill="#FFC2A7"/>
<path d="M140.533 266.959L122.814 291.686L131.792 299.876C134.154 298.774 136.989 299.876 138.013 302.239C138.328 302.869 138.407 303.499 138.407 304.208V306.019L178.569 342.559L179.514 313.421C179.514 313.421 174.632 321.06 164.237 302.79C151.243 279.559 145.967 262.47 140.533 266.959Z" fill="url(#paint0_linear_435_122)"/>
<path d="M286.848 274.438C289.998 277.509 293.305 280.344 296.77 283.022C296.77 283.022 368.433 252.231 345.044 246.167C339.216 245.379 336.224 241.836 328.034 233.252C314.331 247.033 297.085 264.122 286.848 274.438Z" fill="#FFC2A7"/>
<path d="M296.853 283.024L320.714 301.845L329.377 293.183C328.432 290.742 329.613 287.985 332.054 287.04C332.684 286.804 333.393 286.647 334.023 286.725L335.834 286.804L374.185 248.374L345.127 246.012C345.127 246.012 352.529 251.209 333.708 260.738C309.925 272.944 292.6 277.354 296.853 283.024Z" fill="url(#paint1_linear_435_122)"/>
<path d="M122.027 181.752C122.027 196.714 134.234 208.921 149.196 208.921H180.539L148.802 258.533L201.014 281.134L246.059 220.339C252.674 213.724 256.296 204.826 256.296 195.533C256.296 176.003 241.019 162.222 220.78 160.489L151.559 154.662C136.596 153.402 123.445 164.506 122.185 179.468C122.027 180.177 122.027 180.964 122.027 181.752Z" fill="#055F51"/>
<path d="M209.676 268.849C209.597 268.849 209.439 268.849 209.361 268.77L156.126 248.137C155.653 247.901 155.417 247.35 155.653 246.877C155.889 246.484 156.362 246.247 156.756 246.405L209.991 267.037C210.463 267.274 210.699 267.825 210.542 268.297C210.384 268.612 210.069 268.849 209.676 268.849Z" fill="white"/>
<path d="M299.372 242.547C299.136 242.547 298.9 242.468 298.742 242.311L257.713 203.802C257.477 203.566 240.467 185.689 212.353 183.327L123.681 178.996C123.13 178.996 122.736 178.523 122.815 177.972C122.815 177.421 123.287 177.027 123.838 177.106L212.59 181.437C241.491 183.878 258.973 202.306 259.131 202.463L300.081 240.893C300.475 241.287 300.475 241.838 300.081 242.232C299.923 242.468 299.608 242.547 299.372 242.547Z" fill="white"/>
<path d="M277.008 265.858C276.772 265.858 276.535 265.779 276.299 265.543C275.905 265.149 275.905 264.598 276.299 264.205L317.013 223.806C317.407 223.412 318.037 223.491 318.352 223.884C318.667 224.278 318.667 224.83 318.352 225.145L277.638 265.543C277.48 265.779 277.244 265.858 277.008 265.858Z" fill="white"/>
<path d="M235.35 233.412C235.035 233.412 234.641 233.255 234.483 232.94L222.671 211.283L180.382 209.945C179.831 209.866 179.437 209.472 179.516 208.921C179.595 208.448 179.91 208.133 180.382 208.055L223.222 209.393C223.537 209.393 223.852 209.63 224.01 209.866L236.058 231.995C236.295 232.467 236.137 233.018 235.665 233.255C235.665 233.333 235.507 233.333 235.35 233.412Z" fill="white"/>
<path d="M155.892 75.2793C155.892 75.2793 142.583 76.7755 131.716 90.478L87.8522 141.823C78.7172 152.376 74.3072 204.902 130.535 196.554L175.895 190.097L180.856 150.013L158.097 145.131L169.595 125.758C169.595 125.837 164.161 78.6655 155.892 75.2793Z" fill="#00BB8E"/>
<path d="M174.317 54.7261C172.27 59.3723 172.27 64.5698 174.238 69.2161C178.255 78.5086 188.965 82.7611 198.257 78.8236C207.55 74.8073 211.802 64.0973 207.865 54.8048C203.927 45.5123 193.06 41.2598 183.767 45.1973C179.515 47.0873 176.128 50.4736 174.317 54.7261Z" fill="#FFC2A7"/>
<path d="M210.713 77.8951C211.588 76.8133 210.325 74.339 207.891 72.3687C205.457 70.3984 202.774 69.6782 201.898 70.76C201.022 71.8418 202.286 74.316 204.72 76.2863C207.154 78.2566 209.837 78.9769 210.713 77.8951Z" fill="#FFC2A7"/>
<path d="M174.317 54.7256C172.27 59.3718 172.27 64.5693 174.238 69.2156C178.412 69.0581 178.255 61.4981 178.255 61.4981C174.002 59.2143 177.94 50.0793 182.743 51.8118C187.547 53.5443 185.578 59.0568 185.578 59.0568C197.706 69.5306 209.046 60.8681 209.282 60.8681C208.573 50.7881 199.911 43.1493 189.831 43.8581C182.98 44.2518 176.995 48.4256 174.317 54.7256Z" fill="url(#paint2_linear_435_122)"/>
<path d="M181.251 59.2173L181.094 59.1386C181.094 59.1386 180.936 59.0598 181.015 59.1386C181.094 59.2173 180.936 59.0598 180.936 59.0598L180.858 58.9023C180.779 58.7448 180.858 58.981 180.858 58.9023C180.858 58.8235 180.779 58.8236 180.779 58.7448C180.779 58.6661 180.7 58.5873 180.7 58.5873C180.7 58.666 180.779 58.666 180.7 58.5873C180.7 58.5085 180.621 58.4298 180.621 58.3511C180.621 58.3511 180.543 58.1935 180.621 58.2723C180.7 58.351 180.621 58.1935 180.621 58.1148C180.621 58.036 180.621 58.0361 180.621 57.9573C180.621 57.9573 180.7 57.7998 180.7 57.721C180.7 57.6423 180.7 57.6423 180.7 57.721C180.7 57.6423 180.779 57.5636 180.779 57.5636C180.779 57.4848 180.858 57.4848 180.858 57.406C180.7 57.5635 180.858 57.3273 180.858 57.406C180.936 57.3273 180.936 57.3273 180.936 57.2486C180.936 57.1698 181.094 57.0911 181.015 57.1698C180.936 57.2486 181.094 57.1698 181.094 57.091C181.173 57.091 181.251 57.0123 181.251 57.0123C181.173 57.0123 181.173 57.0123 181.251 57.0123L181.488 56.9335C181.33 56.9335 181.645 56.8548 181.488 56.9335H181.881C181.724 56.9335 181.881 56.9335 181.96 56.9335L182.118 57.0123C182.196 57.0123 182.275 57.091 182.196 57.0123L182.354 57.091C182.354 57.091 182.59 57.2486 182.433 57.1698C182.669 57.4061 182.905 57.4848 183.22 57.406C183.535 57.406 183.771 57.1698 183.929 56.9335C184.638 55.5948 184.086 53.9411 182.748 53.2323C181.724 52.6811 180.464 52.9173 179.676 53.6261C179.283 54.0198 179.283 54.5711 179.676 54.9648C180.07 55.3586 180.621 55.3586 181.015 54.9648C180.858 55.1223 181.094 54.9648 181.094 54.8861C181.251 54.7286 181.015 54.8861 181.173 54.8861L181.409 54.8073C181.251 54.8861 181.409 54.8073 181.488 54.8073C181.566 54.8073 181.803 54.8073 181.566 54.8073L181.803 54.8861C182.039 54.9648 181.724 54.8073 181.881 54.8861C181.881 54.8861 182.118 55.0436 181.96 54.8861C182.039 54.9648 182.039 54.9648 182.118 55.0435C182.196 55.1223 182.039 54.9648 182.196 55.1223C182.196 55.201 182.354 55.3586 182.275 55.2011C182.275 55.2798 182.354 55.3585 182.354 55.4373C182.354 55.516 182.354 55.7523 182.354 55.516C182.354 55.5948 182.354 55.6736 182.354 55.6736C182.354 55.7523 182.354 55.7523 182.354 55.831C182.354 55.7523 182.354 55.6736 182.354 55.7523C182.354 55.8311 182.275 56.0673 182.354 55.831L183.85 55.6736C183.141 55.0436 182.118 54.8073 181.173 54.9648C180.306 55.1223 179.598 55.6736 179.125 56.3823C178.259 57.8786 178.731 59.8473 180.228 60.7136C180.306 60.7136 180.306 60.7923 180.385 60.7923C180.858 61.0286 181.488 60.8711 181.724 60.3986C181.881 60.1623 181.724 59.5323 181.251 59.2173Z" fill="#D88260"/>
<path d="M203.859 67.812C204.152 66.3626 203.388 64.9849 202.151 64.7349C200.915 64.4849 199.675 65.4573 199.382 66.9068C199.089 68.3562 199.854 69.7339 201.09 69.9839C202.326 70.2339 203.566 69.2615 203.859 67.812Z" fill="white"/>
<path d="M203.589 67.9105C203.779 66.9727 203.276 66.0796 202.466 65.9158C201.656 65.752 200.846 66.3795 200.656 67.3174C200.466 68.2553 200.969 69.1484 201.779 69.3122C202.589 69.476 203.399 68.8484 203.589 67.9105Z" fill="#005045"/>
<path d="M137.935 85.5175C159.202 85.5175 176.443 68.2765 176.443 47.0088C176.443 25.741 159.202 8.5 137.935 8.5C116.667 8.5 99.4258 25.741 99.4258 47.0088C99.4258 68.2765 116.667 85.5175 137.935 85.5175Z" fill="url(#paint3_linear_435_122)"/>
<path d="M89.0327 49.5282C97.5572 49.5282 104.468 42.6177 104.468 34.0932C104.468 25.5687 97.5572 18.6582 89.0327 18.6582C80.5081 18.6582 73.5977 25.5687 73.5977 34.0932C73.5977 42.6177 80.5081 49.5282 89.0327 49.5282Z" fill="url(#paint4_linear_435_122)"/>
<path d="M195.265 78.2725C195.186 78.2725 195.029 78.2725 194.95 78.1937C192.666 77.4062 191.17 76.1462 190.619 74.4925C189.752 71.9725 191.327 69.5312 191.406 69.4525C191.721 69.0587 192.351 69.0587 192.745 69.3737C193.06 69.6887 193.139 70.0825 192.981 70.4762C192.981 70.555 191.879 72.2875 192.43 73.8625C192.824 74.8862 193.847 75.7525 195.58 76.3825C196.052 76.54 196.367 77.0912 196.131 77.5637C195.974 78.0362 195.659 78.2725 195.265 78.2725Z" fill="#D88260"/>
<path d="M83.2848 161.511C82.7336 161.511 82.3398 161.118 82.3398 160.566C82.3398 160.094 82.6548 159.7 83.1273 159.621C83.7573 159.464 145.891 146.391 157.074 128.594C158.57 126.468 159.042 123.869 158.491 121.428C158.019 119.301 156.837 117.333 155.105 115.915C139.04 125.286 115.179 133.476 109.824 130.248C108.642 129.618 108.17 128.2 108.564 126.94C110.454 119.459 126.519 110.324 142.584 110.324H142.662C147.939 110.324 152.27 111.426 155.341 113.631C158.491 111.82 161.405 109.694 164.161 107.253C166.917 104.733 169.989 101.189 168.65 98.3539C162.586 85.3602 136.205 86.6989 135.969 86.6989C135.417 86.7777 134.945 86.3839 134.866 85.9114C134.787 85.3602 135.181 84.8877 135.654 84.8089C135.732 84.8089 135.732 84.8089 135.811 84.8089C140.694 84.6514 145.576 84.9664 150.459 85.7539C160.696 87.5652 167.626 91.6602 170.382 97.5664C171.879 100.716 170.225 104.418 165.421 108.749C162.744 111.033 159.909 113.159 156.837 114.97C158.57 116.624 159.751 118.75 160.302 121.034C161.011 124.026 160.381 127.176 158.649 129.696C147.072 148.203 86.0411 161.118 83.4423 161.59L83.2848 161.511ZM142.584 112.293C129.039 112.293 112.186 120.246 110.375 127.413C110.217 128.2 110.454 128.436 110.769 128.594C115.257 131.271 137.701 123.869 153.451 114.734C149.986 112.686 145.655 112.293 142.584 112.293Z" fill="#045B4E"/>
<path d="M235.506 128.042C235.428 128.042 235.349 128.042 235.27 128.042C230.86 126.861 192.194 115.993 188.965 106.701C188.493 105.441 188.729 104.102 189.516 103.078C196.446 93.7069 210.543 89.6907 211.094 89.5332C211.566 89.3757 212.118 89.6907 212.275 90.1632C212.433 90.6357 212.118 91.1869 211.645 91.3444C211.488 91.3444 197.628 95.3607 191.091 104.181C190.619 104.732 190.54 105.441 190.776 106.071C193.218 113.079 224.088 123.002 235.821 126.152C236.294 126.309 236.609 126.782 236.53 127.333C236.294 127.806 235.979 128.042 235.506 128.042Z" fill="#045B4E"/>
<path d="M182.984 171.356H280.004L289.612 117.491C290.163 114.341 288.037 111.349 284.887 110.797C284.572 110.719 284.178 110.719 283.863 110.719H198.656C195.821 110.719 193.458 112.766 192.907 115.522L182.984 171.356Z" fill="#055F51"/>
<path d="M280.002 172.3H182.982C182.667 172.3 182.431 172.142 182.273 171.985C182.116 171.748 182.037 171.512 182.037 171.197L191.96 115.285C192.511 112.056 195.346 109.693 198.575 109.693H283.861C287.562 109.693 290.633 112.686 290.633 116.466C290.633 116.86 290.633 117.253 290.555 117.647L280.947 171.512C280.868 171.985 280.475 172.3 280.002 172.3ZM184.085 170.41H279.215L288.665 117.332C289.137 114.733 287.405 112.213 284.727 111.741C284.412 111.662 284.176 111.662 283.861 111.662H198.653C196.291 111.662 194.322 113.316 193.85 115.678L184.085 170.41Z" fill="#055F51"/>
<path d="M189.914 171.356H286.934L296.542 117.491C297.093 114.341 294.967 111.349 291.817 110.797C291.502 110.719 291.108 110.719 290.793 110.719H205.507C202.672 110.719 200.309 112.766 199.837 115.522L189.914 171.356Z" fill="white"/>
<path d="M286.932 172.3H189.912C189.597 172.3 189.361 172.142 189.203 171.985C189.046 171.748 188.967 171.512 188.967 171.197L198.889 115.285C199.441 112.056 202.276 109.693 205.504 109.693H290.712C294.413 109.693 297.484 112.686 297.484 116.466C297.484 116.86 297.484 117.253 297.406 117.647L287.877 171.512C287.798 171.985 287.404 172.3 286.932 172.3ZM191.014 170.41H286.144L295.594 117.332C296.067 114.733 294.334 112.213 291.657 111.741C291.342 111.662 291.106 111.662 290.791 111.662H205.504C203.142 111.662 201.173 113.316 200.701 115.678L191.014 170.41Z" fill="#055F51"/>
<path d="M262.24 136.89C259.745 139.588 256.59 141.567 252.92 142.629C249.952 143.473 247.446 145.559 245.994 148.317L245.573 149.191C246.449 150.278 247.577 151.184 248.856 151.838L249.622 152.241C249.694 152.142 249.775 151.989 249.793 151.881C251.692 148.42 254.827 145.883 258.668 144.793C261.349 144.012 263.594 142.162 264.83 139.701L265.234 138.935C264.152 138.425 263.16 137.707 262.24 136.89Z" fill="#00BB8E"/>
<path d="M242.77 145.732C244.465 142.603 247.243 140.19 250.612 138.992C253.697 137.876 256.371 135.947 258.331 133.451C257.201 132.124 256.305 130.657 255.709 128.945C253.316 132.444 249.851 135.117 245.795 136.575C243.456 137.382 241.475 138.996 240.164 141.064C241.246 142.33 242.082 143.846 242.683 145.503C242.683 145.503 242.726 145.618 242.77 145.732Z" fill="#00BB8E"/>
<path d="M191.958 171.355L190.068 171.04L198.258 118.356C198.888 114.655 200.227 112.056 202.117 110.639C203.141 109.851 204.401 109.536 205.661 109.694L205.346 111.584C205.188 111.584 201.408 111.111 200.148 118.671L191.958 171.355Z" fill="#055F51"/>
<path d="M180.302 149.855C180.302 149.855 184.082 147.965 203.454 144.578C206.526 144.027 208.337 134.262 210.542 131.978C212.747 129.695 216.842 129.695 217.787 131.978C217.787 131.978 222.039 129.143 225.977 131.663C228.261 132.923 229.363 135.601 228.654 138.121L224.244 150.406L231.096 149.382C231.096 149.382 235.033 150.091 233.222 154.895C233.222 154.895 228.497 158.517 227.079 159.856C225.662 161.195 220.937 170.251 215.582 174.582C204.636 183.481 175.734 190.253 175.734 190.253L180.302 149.855Z" fill="#FFC2A7"/>
<path d="M219.679 168.205C219.522 168.205 219.364 168.205 219.285 168.127C218.813 167.89 218.655 167.339 218.892 166.867C222.042 160.567 223.538 151.353 223.538 151.274C223.617 150.723 224.168 150.408 224.641 150.487C225.113 150.565 225.428 151.038 225.428 151.51C225.349 151.904 223.853 161.039 220.624 167.654C220.388 168.048 220.073 168.205 219.679 168.205Z" fill="#D88260"/>
<path d="M207.711 159.305C207.159 159.305 206.766 158.912 206.766 158.36C206.766 158.124 206.923 157.809 207.081 157.652C207.159 157.573 212.357 153.084 214.168 149.147C215.979 145.209 216.924 132.137 216.924 131.979C217.003 131.428 217.476 131.113 218.027 131.192C218.499 131.27 218.893 131.664 218.893 132.137C218.893 132.688 217.948 145.682 215.979 149.934C214.011 154.187 208.656 158.912 208.419 159.069C208.183 159.227 207.947 159.305 207.711 159.305Z" fill="#D88260"/>
<path d="M209.836 136.311C209.836 136.311 206.844 133.633 202.04 135.996C197.236 138.358 195.582 149.304 186.92 152.848C186.92 152.848 204.245 157.731 209.836 136.311Z" fill="#FFC2A7"/>
<path d="M201.016 155.29L199.52 154.109C199.52 154.109 202.433 150.408 204.638 147.494C206.371 145.21 208.34 138.438 208.97 136.075C209.127 135.603 209.678 135.288 210.151 135.445C210.623 135.603 210.86 136.075 210.781 136.548C210.702 136.942 208.418 145.683 206.135 148.675C203.851 151.668 201.016 155.29 201.016 155.29Z" fill="#D88260"/>
<path d="M118.01 158.754C121.272 158.754 123.916 156.11 123.916 152.848C123.916 149.586 121.272 146.941 118.01 146.941C114.748 146.941 112.104 149.586 112.104 152.848C112.104 156.11 114.748 158.754 118.01 158.754Z" fill="#045B4E"/>
<path d="M158.096 146.157C158.017 146.157 158.017 146.157 157.939 146.157C157.702 146.078 134.786 142.219 124.47 141.747C114.469 141.274 108.011 145.212 107.932 145.291C107.46 145.606 106.909 145.448 106.594 144.976C106.279 144.503 106.436 143.952 106.909 143.637C107.224 143.479 113.917 139.306 124.549 139.857C134.944 140.408 158.017 144.267 158.254 144.346C158.805 144.424 159.12 144.976 159.041 145.448C158.962 145.842 158.569 146.157 158.096 146.157Z" fill="#055F51"/>
<path d="M159.435 142.77C159.356 142.77 159.199 142.77 159.12 142.691C158.647 142.534 158.332 141.983 158.569 141.51L168.255 113.554C168.334 112.373 169.279 100.875 162.821 98.985C162.349 98.8275 162.034 98.2763 162.191 97.8038C162.349 97.3313 162.9 97.0163 163.372 97.1738C171.72 99.615 170.224 113.318 170.145 113.869C170.145 113.948 170.145 114.026 170.066 114.105L160.301 142.14C160.144 142.534 159.829 142.77 159.435 142.77Z" fill="#055F51"/>
<path d="M161.328 386.501C98.4857 386.501 47.377 335.392 47.377 272.55C47.377 239.947 61.3157 208.92 85.7282 187.342C86.122 187.027 86.752 187.027 87.067 187.421C87.382 187.815 87.382 188.445 86.9882 188.76C63.0482 210.022 49.3457 240.499 49.3457 272.55C49.3457 334.29 99.5882 384.532 161.328 384.532C223.068 384.532 273.311 334.29 273.311 272.55C273.311 267.431 272.996 262.312 272.287 257.194C272.208 256.642 272.602 256.17 273.074 256.091C273.547 256.012 274.098 256.406 274.177 256.879C274.886 262.076 275.201 267.274 275.201 272.471C275.201 335.392 224.092 386.501 161.328 386.501Z" fill="#055F51"/>
<path d="M138.963 349.173C136.285 349.173 133.687 348.464 131.403 347.125C129.67 345.944 128.095 344.527 126.678 342.873C124 340.038 122.268 338.305 119.433 339.014C118.094 339.408 116.834 339.959 115.653 340.747C111.873 342.873 107.62 345.235 100.375 338.384C96.4378 334.683 94.6266 330.903 93.0516 327.674C90.8466 323.107 88.8778 319.169 82.0266 315.862C79.9003 314.838 78.0891 313.893 76.5141 313.105C72.8128 311.215 70.6078 310.113 69.7416 310.428C69.1903 310.664 68.7966 311.767 68.4028 312.948C66.4341 318.854 58.9528 320.744 58.6378 320.823C58.1653 320.98 57.6141 320.665 57.4566 320.114C57.2991 319.642 57.6141 319.09 58.1653 318.933C58.2441 318.933 64.9378 317.2 66.5916 312.318C67.2216 310.349 67.8516 309.089 69.0328 308.617C70.6866 307.908 72.6553 308.932 77.3803 311.294C78.8766 312.082 80.6878 312.948 82.8141 313.972C90.2166 317.515 92.4216 322.004 94.7053 326.65C96.2803 329.958 98.0128 333.344 101.635 336.809C107.857 342.715 111.007 340.983 114.708 338.935C116.047 338.148 117.464 337.518 118.96 337.045C122.977 336.022 125.575 338.778 128.095 341.377C129.355 342.873 130.852 344.212 132.427 345.314C135.655 347.204 139.593 347.598 143.137 346.338C146.129 345.157 148.413 342.637 149.122 339.487C149.752 337.282 149.83 335.864 149.358 335.155C148.885 334.447 147.31 334.132 145.263 333.817C141.877 333.502 138.569 332.557 135.577 330.982C131.639 328.934 129.907 329.092 128.174 329.249C125.733 329.485 123.607 329.643 117.7 324.524C111.4 319.09 111.558 313.342 111.715 307.75C111.794 303.97 111.952 300.112 110.14 296.017C107.935 290.898 108.487 285.779 108.959 281.605C109.51 276.565 109.668 274.124 106.675 273.415L105.1 273.022C98.9578 271.525 98.6428 271.289 96.5166 265.54C96.0441 264.517 95.9653 263.414 96.4378 262.39C97.1466 261.052 98.8791 260.658 101.005 260.185C103.84 259.555 107.305 258.847 109.825 255.539C111.085 254.122 111.243 251.995 110.298 250.42C107.935 246.089 99.5878 242.86 92.5003 243.49C87.8541 243.884 85.0978 247.27 82.5778 250.342C79.9003 253.57 77.1441 256.957 72.9703 253.57C71.8678 252.783 71.1591 251.602 71.0016 250.342C70.8441 247.822 73.2066 245.38 76.1991 242.388C79.7428 238.765 84.0741 234.355 85.3341 228.449C85.8853 226.087 85.4128 223.645 83.9953 221.677C79.5066 214.983 66.7491 212.62 66.6703 212.62C66.1978 212.384 65.9616 211.833 66.1191 211.36C66.2766 210.967 66.5916 210.73 66.9853 210.73C67.5366 210.809 80.6878 213.329 85.5703 220.653C87.2241 223.015 87.7753 226.008 87.1453 228.922C85.8066 235.379 81.2391 240.025 77.5378 243.805C75.0178 246.404 72.8128 248.688 72.8916 250.342C73.0491 251.129 73.4428 251.838 74.1516 252.232C76.8291 254.358 78.1678 252.862 81.1603 249.239C83.6803 246.089 86.9091 242.23 92.3428 241.758C100.218 241.049 109.195 244.672 111.952 249.633C113.29 251.917 113.054 254.83 111.322 256.878C108.408 260.737 104.313 261.603 101.399 262.233C99.9028 262.548 98.4066 262.863 98.0916 263.414C97.9341 263.965 98.0128 264.517 98.2491 264.989C100.139 269.95 100.139 269.95 105.573 271.289L107.148 271.683C111.794 272.864 111.322 277.274 110.849 281.92C110.377 286.015 109.904 290.74 111.873 295.387C113.763 299.797 113.684 303.97 113.605 307.908C113.448 313.499 113.29 318.382 118.882 323.185C124.158 327.753 125.812 327.595 127.938 327.438C129.749 327.28 131.954 327.123 136.443 329.407C139.278 330.824 142.349 331.69 145.578 332.005C148.098 332.399 150.067 332.635 151.012 334.21C151.799 335.392 151.799 337.282 151.012 340.117C150.067 343.818 147.389 346.81 143.845 348.228C142.349 348.937 140.617 349.173 138.963 349.173Z" fill="#055F51"/>
<path d="M151.01 226.087C149.278 226.087 148.49 225.063 147.703 223.33C147.073 221.283 145.498 219.708 143.45 218.999C140.143 217.66 139.591 218.29 138.095 220.023C136.599 221.755 134.315 224.275 128.173 225.614C123.763 226.638 119.038 225.457 115.573 222.543C110.611 218.527 108.013 212.148 108.013 207.895C107.855 203.722 109.824 199.784 113.21 197.422C113.683 197.107 114.234 197.264 114.549 197.737C114.864 198.209 114.706 198.76 114.234 199.075C114.076 199.154 109.981 201.832 109.981 207.895C109.981 211.597 112.344 217.503 116.754 221.047C119.825 223.645 123.92 224.59 127.779 223.724C133.291 222.543 135.26 220.338 136.678 218.684C138.568 216.637 139.906 215.455 144.238 217.188C146.758 218.054 148.648 220.023 149.514 222.543C150.223 224.197 150.459 224.827 155.026 223.015C163.846 219.472 164.634 207.895 164.634 207.817C164.634 207.344 165.106 206.95 165.579 206.95C166.13 206.95 166.524 207.423 166.445 207.974C166.445 208.525 165.579 220.81 155.656 224.827C154.239 225.535 152.585 225.929 151.01 226.087Z" fill="#055F51"/>
<path d="M239.683 354.845C239.526 354.845 239.368 354.845 239.29 354.766C232.675 351.616 234.171 346.025 235.352 342.008C235.667 340.906 235.982 339.803 236.061 338.622C236.14 337.598 235.903 336.575 235.431 335.708C234.486 333.346 233.462 330.668 237.872 323.03C244.015 312.477 245.117 310.43 244.487 306.807C244.015 303.815 241.337 301.295 230.076 299.168C224.17 297.987 223.618 300.743 222.595 304.917C222.122 307.201 221.492 309.721 219.76 311.69C214.326 317.911 205.978 316.178 200.151 314.367C196.371 313.186 193.93 311.375 192.67 309.012C191.646 306.886 191.567 304.523 192.433 302.318C193.615 298.696 195.426 293.262 205.742 295.94C213.696 297.987 221.098 287.277 223.855 281.292C226.138 276.41 233.226 275.386 242.912 278.457C248.661 280.268 250 278.536 252.126 275.622C252.52 275.15 252.913 274.598 253.307 274.047L253.701 273.575C256.457 270.11 259.135 266.881 265.907 270.425C272.68 273.968 273.782 287.513 273.861 288.065C273.861 288.616 273.467 289.01 272.916 289.01C272.443 289.01 272.05 288.695 271.971 288.143C271.971 287.986 270.947 275.15 265.041 272C259.607 269.165 257.953 271.212 255.118 274.598L254.725 275.071C254.331 275.622 253.937 276.095 253.543 276.567C251.181 279.638 249.212 282.316 242.203 280.111C235.51 277.985 227.635 277.355 225.43 282.001C225.036 282.788 216.61 300.665 205.112 297.751C196.528 295.546 195.268 299.247 194.087 302.87C193.378 304.523 193.457 306.413 194.245 308.067C195.19 309.957 197.316 311.453 200.545 312.477C208.971 315.155 214.562 314.525 218.106 310.43C219.523 308.855 219.996 306.571 220.468 304.445C221.413 300.35 222.437 295.782 230.155 297.278C241.022 299.405 245.353 301.846 246.141 306.492C246.85 310.902 245.432 313.422 239.29 323.975C235.352 330.826 236.14 332.952 237.006 335C237.557 336.181 237.793 337.441 237.715 338.78C237.557 340.04 237.321 341.3 236.927 342.481C235.746 346.655 234.722 350.513 239.92 353.033C240.392 353.27 240.628 353.821 240.392 354.293C240.392 354.687 240.077 354.845 239.683 354.845Z" fill="#055F51"/>
<path d="M244.883 271.604C243.229 271.604 241.89 270.738 240 269.242C239.37 268.769 238.662 268.218 237.874 267.667C236.535 266.879 235.748 265.462 235.669 263.887C235.433 259.949 240 255.854 240.158 255.697C240.236 255.618 240.315 255.618 240.394 255.539C244.489 253.649 250.238 253.334 252.994 258.532C254.805 261.918 254.49 266.879 250.71 269.242C248.033 270.896 246.379 271.604 244.883 271.604ZM241.26 257.272C240.079 258.374 237.323 261.446 237.48 263.887C237.559 264.832 238.11 265.698 238.898 266.171C239.764 266.722 240.473 267.273 241.103 267.746C244.332 270.187 244.883 270.659 249.608 267.667C252.364 265.934 252.6 262.076 251.262 259.477C249.45 256.091 245.749 255.303 241.26 257.272Z" fill="#055F51"/>
<path d="M148.256 385.321C147.705 385.321 147.311 384.927 147.311 384.376C147.311 384.061 147.468 383.825 147.705 383.589C149.831 382.092 150.855 379.415 150.225 376.895C149.28 372.406 144.318 367.681 138.963 366.185C134.16 364.846 132.663 365.319 130.537 366.027C128.096 366.894 125.497 367.366 122.898 367.366C117.228 367.602 116.441 364.137 115.496 360.515C114.787 357.522 113.921 354.136 110.377 351.38C105.337 347.442 105.18 347.521 102.817 348.309C100.455 349.096 98.0133 349.569 95.572 349.805C85.6495 350.75 83.287 352.797 83.2083 352.797C82.8145 353.112 82.2633 353.112 81.8695 352.719C81.4758 352.325 81.4758 351.774 81.8695 351.38C82.1058 351.144 84.6258 348.86 95.3358 347.915C97.6983 347.757 99.982 347.285 102.187 346.497C105.337 345.474 106.046 345.631 111.558 349.884C115.653 353.034 116.598 356.971 117.307 360.042C118.173 363.586 118.646 365.555 122.741 365.397C125.182 365.397 127.545 364.925 129.828 364.137C132.112 363.35 134.002 362.72 139.357 364.216C145.5 365.87 150.855 371.146 151.957 376.422C152.666 379.651 151.406 382.959 148.728 384.927C148.65 385.242 148.413 385.321 148.256 385.321Z" fill="#055F51"/>
<path d="M136.599 245.853C134.709 245.853 133.607 244.751 132.189 243.255C131.244 242.152 130.142 241.128 128.96 240.262C127.858 239.553 127.149 238.293 127.07 236.955C127.07 232.938 132.977 228.528 133.685 228.056C137.623 225.536 141.718 229.316 144.395 232.466C146.443 234.828 147.309 236.955 146.915 238.923C146.443 241.128 144.553 242.939 141.088 244.593C139.67 245.302 138.174 245.696 136.599 245.853ZM134.709 229.552C133.055 230.733 128.882 234.356 128.882 236.955C128.882 237.663 129.275 238.372 129.905 238.687C131.244 239.632 132.425 240.735 133.449 241.916C135.339 243.963 136.048 244.751 140.143 242.782C142.978 241.443 144.632 239.947 144.947 238.451C145.262 237.112 144.553 235.537 142.899 233.647C138.332 228.213 136.048 228.686 134.709 229.552Z" fill="#055F51"/>
<path d="M377.892 196.318H294.811C294.811 180.096 308.513 180.017 308.513 180.017C308.513 180.017 313.553 153.242 332.768 155.605C335.839 155.92 338.832 156.943 341.509 158.518C342.769 159.306 343.872 160.172 344.896 161.275C345.053 161.432 345.289 161.668 345.447 161.826C345.604 161.983 345.841 162.298 346.077 162.535C346.392 162.928 346.786 163.401 347.022 163.873C347.258 164.267 347.494 164.661 347.731 164.976C348.991 167.102 349.857 169.465 350.408 171.906V171.985C350.881 174.111 351.117 176.237 351.117 178.442C352.062 177.576 353.086 176.71 354.188 176.001C355.291 175.213 356.472 174.426 357.732 173.796C360.646 172.221 364.268 170.961 367.812 171.433C369.781 171.67 371.671 172.457 373.167 173.717C382.696 181.041 377.892 196.318 377.892 196.318Z" fill="#00BB8E"/>
<path d="M109.042 106.621H25.9609C25.9609 90.3986 39.6634 90.3199 39.6634 90.3199C39.6634 90.3199 44.6247 63.5449 63.9184 65.9074C66.9897 66.2224 69.9822 67.2461 72.6597 68.8211C73.9197 69.6086 75.0222 70.4749 76.0459 71.4986L76.5972 72.0499C76.8334 72.2861 76.9909 72.5224 77.1484 72.7586C77.4634 73.2311 77.7784 73.6249 78.0934 74.0974C78.4084 74.5699 78.5659 74.8061 78.8022 75.1999C80.0622 77.3261 80.9284 79.6886 81.4797 82.1299V82.2086C81.9522 84.3349 82.1884 86.4611 82.1884 88.6661C83.1334 87.7999 84.1572 86.9336 85.2597 86.2249C86.3622 85.4374 87.5434 84.6499 88.8034 84.0199C91.7172 82.4449 95.3397 81.1849 98.8835 81.6574C100.852 81.8936 102.742 82.6811 104.238 83.9411C113.846 91.2649 109.042 106.621 109.042 106.621Z" fill="white"/>
<path d="M109.04 107.565H25.9587C25.4074 107.565 25.0137 107.172 25.0137 106.62C25.0137 91.973 35.8812 89.768 38.8737 89.3742C39.8974 85.043 45.9612 62.678 64.0737 64.883C67.3024 65.198 70.4524 66.3005 73.2087 67.9542C74.5474 68.7417 75.7287 69.7655 76.8312 70.868L77.3824 71.498C77.6187 71.7342 77.7762 71.9705 78.0124 72.2067C78.0124 72.2067 78.0124 72.2067 78.0912 72.2855C78.4062 72.6792 78.7212 73.1517 79.1149 73.6242C79.5087 74.0967 79.6662 74.4117 79.8237 74.8055C81.0837 77.0105 82.0287 79.4517 82.5799 81.9717C82.9737 83.5467 83.1312 85.1217 83.2887 86.6967C83.7612 86.3817 84.2337 85.9092 84.8637 85.5155C86.0449 84.6492 87.2262 83.9405 88.4862 83.2317C92.3449 81.1842 95.8887 80.3967 99.1962 80.7905C101.322 81.1055 103.37 81.893 105.024 83.2317C109.119 86.4605 111.245 91.5792 111.245 98.1155C111.245 101.108 110.772 104.1 109.985 106.935C109.749 107.329 109.434 107.565 109.04 107.565ZM26.9824 105.675H108.331C109.119 102.683 111.56 90.713 103.842 84.728C102.425 83.6255 100.692 82.9167 98.9599 82.6805C96.1249 82.2867 92.8962 83.0742 89.4312 84.8855C87.1474 86.1455 85.0212 87.6417 83.0524 89.3742C82.6587 89.6892 82.0287 89.6892 81.7137 89.2955C81.5562 89.138 81.4774 88.9017 81.4774 88.6655C81.4774 86.618 81.2412 84.4917 80.7687 82.4442C80.2174 80.0817 79.3512 77.798 78.0912 75.7505C77.8549 75.3567 77.6187 75.0417 77.3824 74.648C77.1462 74.2542 76.7524 73.7817 76.4374 73.388C76.2799 73.1517 76.0437 72.9155 75.8862 72.758C75.7287 72.6005 75.5712 72.443 75.4137 72.2067C74.4687 71.183 73.3662 70.3167 72.1849 69.608C69.6649 68.033 66.7512 67.088 63.8374 66.773C45.6462 64.568 40.6849 90.1617 40.6062 90.398C40.5274 90.8705 40.1337 91.1855 39.6612 91.1855C39.1887 91.2642 27.4549 91.5792 26.9824 105.675Z" fill="#055F51"/>
<path d="M268.983 382.246H185.98C185.98 366.102 199.683 365.945 199.683 365.945C199.683 365.945 204.723 339.17 223.938 341.532C227.009 341.847 230.002 342.871 232.679 344.446C233.939 345.234 235.042 346.1 236.144 347.202C236.302 347.36 236.538 347.596 236.695 347.754C236.853 347.911 237.089 348.226 237.247 348.462C237.562 348.856 237.955 349.329 238.192 349.801C238.428 350.274 238.664 350.589 238.9 350.904C240.16 353.03 241.027 355.392 241.578 357.834V357.912C242.05 360.039 242.287 362.165 242.287 364.37C243.232 363.504 244.255 362.637 245.358 361.929C246.46 361.141 247.642 360.354 248.902 359.724C251.815 358.149 255.438 356.889 258.982 357.361C260.95 357.597 262.84 358.385 264.337 359.645C273.787 366.89 268.983 382.246 268.983 382.246Z" fill="#045B4E"/>
<path d="M320.642 136.627H304.419C303.868 136.548 303.474 136.155 303.553 135.603C303.632 135.131 303.947 134.816 304.419 134.737H320.642C323.083 134.737 325.131 132.768 325.131 130.248V121.35C325.131 117.806 327.965 114.971 331.509 114.971H369.861C370.412 114.892 370.884 115.286 370.884 115.837C370.963 116.388 370.569 116.861 370.018 116.861C369.939 116.861 369.939 116.861 369.861 116.861H331.509C329.068 116.861 327.021 118.83 327.021 121.35V130.327C327.021 133.792 324.186 136.627 320.642 136.627Z" fill="#055F51"/>
<path d="M360.723 127.726H353.399C350.013 127.726 347.178 124.97 347.178 121.505V116.623C347.178 116.071 347.571 115.678 348.123 115.678C348.674 115.678 349.068 116.071 349.068 116.623V121.505C349.068 123.868 350.958 125.758 353.399 125.758H360.723C361.274 125.758 361.668 126.151 361.668 126.703C361.668 127.333 361.195 127.726 360.723 127.726Z" fill="#055F51"/>
<path d="M332.611 116.623C332.06 116.623 331.666 116.229 331.666 115.678V109.535C331.666 106.858 333.871 104.653 336.549 104.653H354.11C354.661 104.574 355.134 104.968 355.134 105.519C355.212 106.07 354.819 106.543 354.267 106.543C354.189 106.543 354.189 106.543 354.11 106.543H336.549C334.895 106.543 333.556 107.881 333.556 109.535V115.678C333.556 116.229 333.162 116.623 332.611 116.623Z" fill="#055F51"/>
<path d="M355.529 108.278C357.399 108.278 358.915 106.762 358.915 104.892C358.915 103.022 357.399 101.506 355.529 101.506C353.659 101.506 352.143 103.022 352.143 104.892C352.143 106.762 353.659 108.278 355.529 108.278Z" fill="white"/>
<path d="M355.529 109.221C353.166 109.221 351.197 107.252 351.197 104.89C351.197 102.527 353.166 100.559 355.529 100.559C357.891 100.559 359.86 102.527 359.86 104.89C359.86 107.252 357.891 109.221 355.529 109.221ZM355.529 102.527C354.19 102.527 353.087 103.63 353.087 104.969C353.087 106.307 354.19 107.41 355.529 107.41C356.867 107.41 357.97 106.307 357.97 104.969C357.97 103.63 356.867 102.527 355.529 102.527Z" fill="#055F51"/>
<path d="M370.806 119.224C372.676 119.224 374.192 117.708 374.192 115.837C374.192 113.967 372.676 112.451 370.806 112.451C368.936 112.451 367.42 113.967 367.42 115.837C367.42 117.708 368.936 119.224 370.806 119.224Z" fill="white"/>
<path d="M370.804 120.088C368.441 120.088 366.473 118.198 366.473 115.757C366.473 113.316 368.363 111.426 370.804 111.426C373.245 111.426 375.135 113.316 375.135 115.757C375.135 118.198 373.166 120.088 370.804 120.088ZM370.804 113.395C369.465 113.395 368.363 114.497 368.363 115.757C368.363 117.096 369.465 118.198 370.725 118.198C372.064 118.198 373.166 117.096 373.166 115.836C373.245 114.497 372.143 113.395 370.804 113.395Z" fill="#055F51"/>
<path d="M361.668 130.011C363.538 130.011 365.054 128.495 365.054 126.625C365.054 124.754 363.538 123.238 361.668 123.238C359.797 123.238 358.281 124.754 358.281 126.625C358.281 128.495 359.797 130.011 361.668 130.011Z" fill="white"/>
<path d="M361.671 130.955C359.309 130.955 357.34 129.065 357.34 126.624C357.34 124.183 359.23 122.293 361.671 122.293C364.112 122.293 366.002 124.183 366.002 126.624C366.002 129.065 364.034 130.955 361.671 130.955ZM361.671 124.262C360.332 124.262 359.23 125.364 359.23 126.703C359.23 128.042 360.332 129.144 361.671 129.144C363.01 129.144 364.112 128.042 364.112 126.703C364.112 125.364 363.01 124.262 361.671 124.262Z" fill="#055F51"/>
<path d="M303.476 139.226C305.346 139.226 306.862 137.71 306.862 135.839C306.862 133.969 305.346 132.453 303.476 132.453C301.606 132.453 300.09 133.969 300.09 135.839C300.09 137.71 301.606 139.226 303.476 139.226Z" fill="white"/>
<path d="M303.474 140.092C301.111 140.092 299.143 138.123 299.143 135.761C299.143 133.398 301.111 131.43 303.474 131.43C305.836 131.43 307.805 133.398 307.805 135.761C307.726 138.202 305.836 140.171 303.474 140.092ZM303.474 133.398C302.135 133.398 301.033 134.501 301.033 135.84C301.033 137.178 302.135 138.281 303.474 138.281C304.813 138.281 305.915 137.178 305.915 135.84C305.836 134.501 304.813 133.398 303.474 133.398Z" fill="#055F51"/>
<path d="M85.6499 177.184H69.3487C65.8049 177.184 62.9699 174.349 62.9699 170.805V161.828C62.9699 159.387 61.0012 157.339 58.4812 157.339H20.2087C19.6574 157.339 19.2637 156.945 19.2637 156.394C19.2637 155.843 19.6574 155.449 20.2087 155.449H58.5599C62.1037 155.449 64.9387 158.284 64.9387 161.828V170.805C64.9387 173.247 66.9074 175.294 69.4274 175.294H85.7287C86.2799 175.215 86.7524 175.609 86.7524 176.16C86.8312 176.712 86.4374 177.184 85.8862 177.184C85.8074 177.184 85.7287 177.184 85.6499 177.184Z" fill="#055F51"/>
<path d="M36.6652 168.284H29.3415C28.7902 168.284 28.3965 167.891 28.3965 167.339C28.3965 166.788 28.7902 166.394 29.3415 166.394H36.6652C39.0277 166.394 40.9965 164.504 40.9965 162.142V157.259C40.9965 156.708 41.3902 156.314 41.9415 156.314C42.4927 156.314 42.8865 156.708 42.8865 157.259V162.142C42.8077 165.449 40.0515 168.284 36.6652 168.284Z" fill="#055F51"/>
<path d="M57.4574 157.181C56.9062 157.181 56.5124 156.787 56.5124 156.236V150.093C56.5124 148.44 55.1737 147.101 53.5199 147.101H35.9587C35.4074 147.101 35.0137 146.707 35.0137 146.156C35.0137 145.605 35.4074 145.211 35.9587 145.211H53.4412C56.1974 145.211 58.4024 147.416 58.4024 150.093V156.236C58.4024 156.708 58.0087 157.181 57.4574 157.181Z" fill="#055F51"/>
<path d="M34.5405 148.835C36.4107 148.835 37.9268 147.319 37.9268 145.449C37.9268 143.579 36.4107 142.062 34.5405 142.062C32.6704 142.062 31.1543 143.579 31.1543 145.449C31.1543 147.319 32.6704 148.835 34.5405 148.835Z" fill="white"/>
<path d="M34.5441 149.778C32.1816 149.778 30.2129 147.888 30.2129 145.446C30.2129 143.005 32.1029 141.115 34.5441 141.115C36.9066 141.115 38.8754 143.005 38.8754 145.446C38.8754 147.888 36.9066 149.778 34.5441 149.778ZM34.5441 143.005C33.2054 143.005 32.1029 144.108 32.1029 145.446C32.1029 146.785 33.2054 147.888 34.5441 147.888C35.8829 147.888 36.9854 146.785 36.9854 145.446C36.9066 144.108 35.8041 143.005 34.5441 143.005Z" fill="#055F51"/>
<path d="M19.2652 159.7C21.1353 159.7 22.6514 158.184 22.6514 156.314C22.6514 154.444 21.1353 152.928 19.2652 152.928C17.395 152.928 15.8789 154.444 15.8789 156.314C15.8789 158.184 17.395 159.7 19.2652 159.7Z" fill="white"/>
<path d="M19.2629 160.645C16.9004 160.645 14.9316 158.676 14.9316 156.314C14.9316 153.951 16.9004 151.982 19.2629 151.982C21.6254 151.982 23.5941 153.951 23.5941 156.314C23.5154 158.676 21.6254 160.645 19.2629 160.645ZM19.2629 153.872C17.9241 153.872 16.8216 154.975 16.8216 156.314C16.8216 157.652 17.9241 158.755 19.2629 158.755C20.6016 158.755 21.7041 157.652 21.7041 156.314C21.6254 154.975 20.5229 153.872 19.2629 153.872Z" fill="#055F51"/>
<path d="M28.3198 170.567C30.19 170.567 31.7061 169.051 31.7061 167.181C31.7061 165.311 30.19 163.795 28.3198 163.795C26.4497 163.795 24.9336 165.311 24.9336 167.181C24.9336 169.051 26.4497 170.567 28.3198 170.567Z" fill="white"/>
<path d="M28.3176 171.512C25.9551 171.512 23.9863 169.622 23.9863 167.181C23.9863 164.818 25.8763 162.85 28.3176 162.85C30.6801 162.85 32.6488 164.74 32.6488 167.181C32.6488 169.543 30.7588 171.512 28.3176 171.512ZM28.3176 164.818C26.9788 164.818 25.8763 165.921 25.8763 167.26C25.8763 168.598 26.9788 169.701 28.3176 169.701C29.6563 169.701 30.7588 168.598 30.7588 167.26C30.7588 165.842 29.7351 164.74 28.3176 164.818C28.3963 164.74 28.3963 164.74 28.3176 164.818Z" fill="#055F51"/>
<path d="M86.5952 179.702C88.4654 179.702 89.9815 178.186 89.9815 176.316C89.9815 174.446 88.4654 172.93 86.5952 172.93C84.7251 172.93 83.209 174.446 83.209 176.316C83.209 178.186 84.7251 179.702 86.5952 179.702Z" fill="white"/>
<path d="M86.593 180.649C84.2305 180.649 82.2617 178.759 82.2617 176.318C82.2617 173.876 84.1517 171.986 86.593 171.986C88.9555 171.986 90.9242 173.876 90.9242 176.318C90.9242 178.68 88.9555 180.649 86.593 180.649ZM86.593 173.955C85.2542 173.955 84.1517 175.058 84.1517 176.396C84.1517 177.735 85.2542 178.838 86.593 178.838C87.9317 178.838 89.0342 177.735 89.0342 176.396C89.0342 174.979 87.9317 173.955 86.593 173.955Z" fill="#055F51"/>
<defs>
<linearGradient id="paint0_linear_435_122" x1="240.053" y1="125.805" x2="200.937" y2="209.627" gradientUnits="userSpaceOnUse">
<stop stop-color="#0A6B5B"/>
<stop offset="0.78" stop-color="#005146"/>
<stop offset="0.91" stop-color="#005045"/>
</linearGradient>
<linearGradient id="paint1_linear_435_122" x1="371.374" y1="187.091" x2="332.259" y2="270.912" gradientUnits="userSpaceOnUse">
<stop stop-color="#0A6B5B"/>
<stop offset="0.78" stop-color="#005146"/>
<stop offset="0.91" stop-color="#005045"/>
</linearGradient>
<linearGradient id="paint2_linear_435_122" x1="231.555" y1="-49.4341" x2="174.879" y2="103.152" gradientUnits="userSpaceOnUse">
<stop stop-color="#0A6B5B"/>
<stop offset="0.78" stop-color="#005146"/>
<stop offset="0.91" stop-color="#005045"/>
</linearGradient>
<linearGradient id="paint3_linear_435_122" x1="180.772" y1="-68.298" x2="124.095" y2="84.288" gradientUnits="userSpaceOnUse">
<stop stop-color="#0A6B5B"/>
<stop offset="0.78" stop-color="#005146"/>
<stop offset="0.91" stop-color="#005045"/>
</linearGradient>
<linearGradient id="paint4_linear_435_122" x1="106.246" y1="-12.1809" x2="83.4869" y2="49.0787" gradientUnits="userSpaceOnUse">
<stop stop-color="#0A6B5B"/>
<stop offset="0.78" stop-color="#005146"/>
<stop offset="0.91" stop-color="#005045"/>
</linearGradient>
</defs>
</svg>