<?xml version="1.0" standalone="no"?>
<!DOCTYPE svg PUBLIC "-//W3C//DTD SVG 20010904//EN"
 "http://www.w3.org/TR/2001/REC-SVG-20010904/DTD/svg10.dtd">
<svg version="1.0" xmlns="http://www.w3.org/2000/svg"
 width="500.000000pt" height="500.000000pt" viewBox="0 0 500.000000 500.000000"
 preserveAspectRatio="xMidYMid meet">

<g transform="translate(0.000000,500.000000) scale(0.100000,-0.100000)"
fill="grey" stroke="none">
<path d="M1638 4183 l-3 -818 -817 -3 -818 -2 0 -25 0 -25 845 0 845 0 0 845
0 845 -25 0 -25 0 -2 -817z"/>
<path d="M1738 4133 l-3 -868 -867 -3 -868 -2 0 -370 0 -370 185 0 c178 0 185
-1 185 -20 0 -19 -7 -20 -185 -20 l-185 0 0 -370 0 -370 868 -2 867 -3 3 -867
2 -868 370 0 370 0 0 185 c0 178 1 185 20 185 19 0 20 -7 20 -185 l0 -185 370
0 370 0 2 868 3 867 868 3 867 2 0 370 0 370 -185 0 c-178 0 -185 1 -185 20 0
19 7 20 185 20 l185 0 0 370 0 370 -867 2 -868 3 -3 868 -2 867 -370 0 -370 0
0 -185 c0 -178 -1 -185 -20 -185 -19 0 -20 7 -20 185 l0 185 -370 0 -370 0 -2     
-867z m782 222 c0 -178 -1 -185 -20 -185 -19 0 -20 7 -20 185 0 178 1 185 20
185 19 0 20 -7 20 -185z m0 -460 c0 -178 -1 -185 -20 -185 -19 0 -20 7 -20
185 0 178 1 185 20 185 19 0 20 -7 20 -185z m0 -460 c0 -178 -1 -185 -20 -185
-19 0 -20 7 -20 185 0 178 1 185 20 185 19 0 20 -7 20 -185z m-1690 -935 c0
-19 -7 -20 -185 -20 -178 0 -185 1 -185 20 0 19 7 20 185 20 178 0 185 -1 185
-20z m460 0 c0 -19 -7 -20 -185 -20 -178 0 -185 1 -185 20 0 19 7 20 185 20
178 0 185 -1 185 -20z m460 0 c0 -19 -7 -20 -185 -20 -178 0 -185 1 -185 20 0
19 7 20 185 20 178 0 185 -1 185 -20z m1870 0 c0 -19 -7 -20 -185 -20 -178 0
-185 1 -185 20 0 19 7 20 185 20 178 0 185 -1 185 -20z m460 0 c0 -19 -7 -20
-185 -20 -178 0 -185 1 -185 20 0 19 7 20 185 20 178 0 185 -1 185 -20z m460
0 c0 -19 -7 -20 -185 -20 -178 0 -185 1 -185 20 0 19 7 20 185 20 178 0 185
-1 185 -20z m-2020 -935 c0 -178 -1 -185 -20 -185 -19 0 -20 7 -20 185 0 178
1 185 20 185 19 0 20 -7 20 -185z m0 -460 c0 -178 -1 -185 -20 -185 -19 0 -20
7 -20 185 0 178 1 185 20 185 19 0 20 -7 20 -185z m0 -460 c0 -178 -1 -185
-20 -185 -19 0 -20 7 -20 185 0 178 1 185 20 185 19 0 20 -7 20 -185z"/>
<path d="M3310 4155 l0 -845 845 0 845 0 0 25 0 25 -820 0 -820 0 0 820 0 820
-25 0 -25 0 0 -845z"/>
<path d="M0 1665 l0 -25 820 0 820 0 0 -820 0 -820 25 0 25 0 0 845 0 845
-845 0 -845 0 0 -25z"/>
<path d="M3310 845 l0 -845 25 0 25 0 0 820 0 820 820 0 820 0 0 25 0 25 -845
0 -845 0 0 -845z"/>
</g>
</svg>
