<svg width="25" height="24" viewBox="0 0 25 24" fill="none" xmlns="http://www.w3.org/2000/svg">
<path d="M10.543 2.75C14.547 2.75 17.793 5.99594 17.793 10C17.793 11.7319 17.1857 13.3219 16.1725 14.5688L21.0733 19.4697C21.3662 19.7626 21.3662 20.2374 21.0733 20.5303C20.807 20.7966 20.3904 20.8208 20.0968 20.6029L20.0126 20.5303L15.1118 15.6295C13.8649 16.6427 12.2748 17.25 10.543 17.25C6.5389 17.25 3.29297 14.0041 3.29297 10C3.29297 5.99594 6.5389 2.75 10.543 2.75ZM10.543 4.25C7.36733 4.25 4.79297 6.82436 4.79297 10C4.79297 13.1756 7.36733 15.75 10.543 15.75C13.7186 15.75 16.293 13.1756 16.293 10C16.293 6.82436 13.7186 4.25 10.543 4.25Z" fill="#cdcdcd"/>
</svg>