<svg width="300" height="300" viewBox="0 0 394 394" fill="none" xmlns="http://www.w3.org/2000/svg">
<path d="M354.579 188.496C354.579 188.496 374.582 320.717 292.288 340.877C209.758 361.116 154.082 315.204 104.39 362.612L8.94531 267.167C8.94531 267.167 104.469 211.333 179.597 226.374C254.724 241.416 301.738 272.128 315.992 178.967L354.579 188.496Z" fill="url(#paint0_linear_315_422)"/>
<path d="M282.211 172.981L386.003 196.291L345.211 130.85L282.211 172.981Z" fill="#00BB8E"/>
<path d="M294.97 198.81C294.891 198.81 294.733 198.81 294.655 198.732L279.377 192.353L259.532 181.879C259.138 181.722 258.981 181.249 259.138 180.855C259.217 180.698 259.296 180.619 259.453 180.54C282.448 166.365 286.701 147.859 289.142 128.487L275.203 127.227C274.888 127.227 274.652 126.99 274.495 126.754C274.416 126.518 274.416 126.203 274.652 125.967L298.277 98.0103C298.435 97.8528 298.671 97.6953 298.907 97.6953C299.143 97.6953 299.38 97.7741 299.537 98.0103L326.155 130.77C326.391 131.007 326.391 131.4 326.233 131.715C326.076 132.03 325.682 132.188 325.367 132.03L310.877 128.644C314.578 143.685 316.862 164.869 308.121 182.824C302.687 193.928 295.6 198.495 295.363 198.653C295.285 198.81 295.127 198.81 294.97 198.81ZM261.58 181.17L280.086 191.014L294.891 197.157C296.308 196.133 302.215 191.487 306.782 182.115C315.523 164.082 312.846 142.662 309.066 127.857C308.987 127.463 309.223 126.99 309.617 126.912C309.775 126.912 309.853 126.912 310.011 126.912L323.477 130.062L298.907 99.8216L276.936 125.888L290.166 127.069C290.402 127.069 290.56 127.227 290.717 127.384C290.875 127.542 290.953 127.778 290.875 128.014C288.512 147.544 284.496 166.523 261.58 181.17Z" fill="#1C7044"/>
<path d="M322.922 354.732C322.685 354.732 322.528 354.654 322.37 354.496L306.305 339.14L290.713 327.564C290.319 327.327 290.24 326.855 290.477 326.461C290.555 326.304 290.713 326.225 290.87 326.146C316.464 317.562 324.89 300.552 331.663 282.282L318.433 277.873C318.039 277.715 317.803 277.321 317.882 276.927C317.96 276.77 318.039 276.612 318.197 276.534L347.57 254.72C347.728 254.562 348.043 254.563 348.279 254.563C348.515 254.641 348.673 254.799 348.83 254.956L367.258 292.914C367.494 293.307 367.337 293.78 366.943 294.016C366.707 294.174 366.392 294.174 366.155 294.016L352.847 287.401C353.004 302.915 350.563 324.256 338.514 340.794C331.033 351.031 323.552 354.496 323.237 354.654C323.158 354.654 323 354.732 322.922 354.732ZM292.918 327.17L307.329 337.88C307.329 337.88 307.408 337.88 307.408 337.959L323.079 352.921C324.812 351.976 331.19 348.275 337.333 339.77C344.027 330.635 351.823 313.861 351.272 286.141C351.272 285.826 351.429 285.59 351.665 285.432C351.902 285.275 352.217 285.275 352.453 285.354L364.738 291.496L347.728 256.452L320.402 276.77L333.002 280.944C333.238 281.023 333.395 281.18 333.474 281.338C333.553 281.574 333.553 281.731 333.474 281.967C326.702 300.71 318.433 318.114 292.918 327.17Z" fill="#1C7044"/>
<path d="M95.1756 84.9388C88.8756 85.4113 83.7569 90.3726 83.1269 96.6726C82.4969 90.3726 77.4569 85.4113 71.0781 84.9388C77.3781 84.4663 82.4181 79.5051 83.1269 73.2051C83.7569 79.5051 88.8756 84.4663 95.1756 84.9388Z" fill="#FED490"/>
<path d="M71.9462 74.466C68.56 74.7023 65.8037 77.3798 65.4887 80.766C65.1737 77.3798 62.4175 74.7023 59.0312 74.466C62.4175 74.2298 65.1737 71.5523 65.4887 68.166C65.8825 71.5523 68.56 74.2298 71.9462 74.466Z" fill="#FED490"/>
<path d="M242.203 232.988C243.227 236.925 245.117 240.626 247.716 243.776C247.716 243.776 318.984 233.618 299.612 222.593C294.572 220.466 292.918 216.45 290.556 205.268C274.963 214.245 253.779 226.294 242.203 232.988Z" fill="#FFC2A7"/>
<path d="M247.715 243.778L264.41 266.301L324.89 231.651L299.611 222.516C299.611 222.516 304.966 228.894 285.909 232.911C261.811 237.951 245.274 237.793 247.715 243.778Z" fill="#1C7044"/>
<path d="M158.258 218.734C196.767 209.047 227.952 171.956 227.952 171.956L242.206 232.987L294.89 202.747L277.565 128.092C277.565 128.092 263.783 75.3299 220.235 97.4586C211.572 101.869 201.492 114.39 190.546 128.014C174.087 148.489 154.478 171.326 145.501 185.186C127.94 212.434 137.39 224.01 158.258 218.734Z" fill="url(#paint1_linear_315_422)"/>
<path d="M163.06 256.296C162.036 260.234 161.8 264.329 162.43 268.424C162.43 268.424 229.288 295.12 218.027 275.905C214.72 271.574 215.271 267.243 218.815 256.375C200.781 256.296 176.447 256.218 163.06 256.296Z" fill="#FFC2A7"/>
<path d="M162.426 268.425L165.733 296.302L235.427 296.381L218.023 275.906C218.023 275.906 219.441 284.096 201.013 278.111C177.625 270.394 163.371 261.967 162.426 268.425Z" fill="#1C7044"/>
<path d="M153.922 232.911C181.878 213.775 176.13 212.042 176.13 212.042L163.057 256.221H223.773L245.902 182.826C245.902 182.826 260.156 130.221 211.488 127.78C201.802 127.307 187.076 133.922 170.538 139.514C141.637 149.279 135.495 152.114 120.296 158.65C64.7771 182.669 104.31 266.931 153.922 232.911Z" fill="url(#paint2_linear_315_422)"/>
<path d="M226.534 245.038C216.532 245.038 169.597 244.093 167.471 244.014C166.999 244.014 166.684 243.699 166.684 243.227C166.684 242.754 166.999 242.439 167.471 242.439C168.022 242.439 222.99 243.621 227.951 243.463C228.424 243.463 228.739 243.778 228.739 244.251C228.739 244.723 228.424 245.038 227.951 245.038H226.534Z" fill="#1C7044"/>
<path d="M199.122 244.409C199.043 244.409 198.965 244.409 198.886 244.409C198.492 244.33 198.177 243.857 198.335 243.464L213.927 185.819C215.896 178.731 214.478 173.376 209.675 169.832C201.721 163.926 187.231 165.029 182.742 167.864L182.663 167.942L95.881 208.814C95.4872 208.971 95.0147 208.814 94.8572 208.42C94.6997 208.026 94.8572 207.554 95.251 207.317L182.033 166.446C186.995 163.375 202.115 162.115 210.698 168.494C214.4 171.25 218.258 176.526 215.581 186.134L199.988 243.779C199.831 244.172 199.516 244.409 199.122 244.409Z" fill="white"/>
<path d="M176.131 212.907C175.659 212.907 175.344 212.592 175.344 212.12C175.344 212.041 175.344 211.962 175.344 211.884L188.023 162.114C188.101 161.641 188.574 161.405 188.968 161.484C189.361 161.562 189.676 162.035 189.598 162.429L176.919 212.199C176.84 212.671 176.525 212.907 176.131 212.907Z" fill="#1C7044"/>
<path d="M238.347 219.285C237.874 219.285 237.559 218.97 237.48 218.577C237.48 218.262 237.638 217.947 237.953 217.789L290.794 187.234C291.188 186.998 291.66 187.155 291.897 187.549C292.133 187.943 291.975 188.415 291.582 188.652L238.74 219.128C238.583 219.207 238.425 219.285 238.347 219.285Z" fill="#1C7044"/>
<path d="M264.486 203.3C264.092 203.3 263.777 202.985 263.698 202.591L254.248 137.543C252.358 132.188 249.444 128.566 245.586 126.912C240.388 124.707 233.222 125.731 224.244 129.905C223.851 130.062 223.378 129.905 223.221 129.511C223.063 129.117 223.221 128.645 223.614 128.487C232.986 124.077 240.624 123.053 246.216 125.495C250.547 127.385 253.854 131.243 255.823 137.15C255.823 137.228 255.823 137.228 255.823 137.307L265.273 202.433C265.352 202.827 265.037 203.3 264.643 203.3H264.486Z" fill="white"/>
<path d="M236.298 212.276C236.219 212.276 236.14 212.276 236.062 212.276C235.668 212.197 235.432 211.725 235.51 211.331L248.189 167.073C247.874 151.953 243.149 141.243 234.329 135.258C216.689 123.288 188.024 133.841 187.788 133.998C187.394 134.156 186.922 133.92 186.764 133.526C186.607 133.132 186.843 132.66 187.237 132.502C188.418 132.03 216.925 121.556 235.274 133.998C244.645 140.298 249.528 151.481 249.843 167.231C249.843 167.31 249.843 167.388 249.843 167.467L237.164 211.803C237.007 212.04 236.692 212.276 236.298 212.276Z" fill="#1C7044"/>
<path d="M220.23 285.201C219.757 285.201 219.442 284.886 219.442 284.413C219.442 284.177 219.521 283.941 219.757 283.783C226.372 278.507 231.57 272.994 231.097 271.734C231.097 271.656 230.782 271.498 229.837 271.498C222.435 271.813 218.182 283.704 218.182 283.862C218.025 284.256 217.552 284.492 217.159 284.334C216.765 284.177 216.529 283.704 216.686 283.311C216.844 282.759 221.332 270.159 229.837 269.844C231.412 269.766 232.357 270.238 232.672 271.104C233.539 273.388 228.656 278.271 224.719 281.736C228.814 280.476 233.224 280.948 237.082 282.917C237.476 283.153 237.634 283.626 237.397 284.019C237.161 284.413 236.689 284.571 236.295 284.334C228.814 280.239 220.86 284.964 220.781 285.043C220.466 285.122 220.387 285.201 220.23 285.201Z" fill="white"/>
<path d="M307.723 230.859C307.33 230.859 306.936 230.544 306.936 230.151C306.936 229.599 306.07 216.291 313.708 212.668C315.126 212.038 316.15 212.038 316.78 212.747C318.433 214.479 315.913 220.937 313.63 225.662C316.937 222.906 321.19 221.567 325.442 221.961C325.915 221.961 326.23 222.354 326.151 222.827C326.151 223.299 325.757 223.614 325.285 223.536C316.858 222.748 311.346 230.229 311.267 230.229C311.031 230.623 310.558 230.702 310.165 230.466C309.771 230.229 309.692 229.757 309.928 229.363C313.945 221.882 316.543 214.794 315.598 213.849C315.52 213.771 315.205 213.692 314.338 214.164C307.645 217.314 308.432 229.993 308.432 230.072C308.59 230.466 308.275 230.781 307.723 230.859C307.802 230.859 307.802 230.859 307.723 230.859Z" fill="white"/>
<path d="M96.045 103.129L143.059 81.3148C150.068 78.0861 158.336 81.1573 161.565 88.0873C162.353 89.8198 162.825 91.6311 162.825 93.5211L163.376 113.051C163.77 126.596 155.738 138.881 143.295 144.079L128.018 150.379C111.401 157.309 92.265 149.355 85.4138 132.739C85.335 132.581 85.2562 132.424 85.2562 132.266L81.6338 123.21C81.555 123.289 76.2788 111.476 96.045 103.129Z" fill="#00BB8E"/>
<path d="M57.5336 139.195L15.0874 186.288C15.0874 186.288 -10.7426 213.142 36.1924 241.964C36.1924 241.964 85.3324 271.18 86.1986 271.417C87.0649 271.653 88.2461 282.914 100.61 290.238C112.974 297.562 111.792 304.019 111.32 307.169C110.847 310.319 116.202 312.288 119.589 309.453C122.975 306.618 124.156 298.979 124.156 298.979C124.156 298.979 132.031 308.902 130.614 315.123C129.196 321.344 130.299 324.652 133.764 325.833C137.229 327.014 141.954 323.47 141.954 323.47C141.954 323.47 142.347 329.062 149.829 325.045C157.31 321.029 158.649 305.673 158.649 305.673C158.649 305.673 165.106 301.342 160.932 294.412C156.759 287.482 145.576 277.795 143.686 274.96C141.796 272.125 81.2374 203.534 81.2374 203.534L105.886 174.003L57.5336 139.195Z" fill="#FFC2A7"/>
<path d="M91.7902 105.096C73.8352 114.073 57.6914 139.273 57.6914 139.273L105.808 174.081L127.07 150.141C127.149 150.141 104.469 106.671 91.7902 105.096Z" fill="#00BB8E"/>
<path d="M286.378 38.3179C286.378 38.3179 295.041 16.5042 303.546 17.9217C309.688 18.9454 305.908 31.3092 305.908 31.3092C305.908 31.3092 331.423 19.5754 334.809 18.5517C338.196 17.5279 343.078 24.7729 337.959 28.3954C332.841 32.0179 327.249 35.7979 327.249 35.7979C327.249 35.7979 333.628 41.3892 329.612 48.1617C329.612 48.1617 335.124 53.8317 331.266 59.7379C331.266 59.7379 328.431 72.8104 323.154 77.6929C317.878 82.5754 312.523 77.4567 312.523 77.4567C312.523 77.4567 305.436 82.3392 301.104 84.0717C295.198 86.4342 286.378 85.2529 283.071 79.5042C281.338 76.5117 275.038 59.5017 286.378 38.3179Z" fill="#FFC2A7"/>
<path d="M299.768 60.4459C299.532 60.4459 299.295 60.2884 299.138 60.1309C298.902 59.8159 298.902 59.2646 299.295 59.0284C304.808 54.8546 303.233 46.5859 303.233 46.5859C303.233 46.5071 303.233 46.4284 303.233 46.3496L305.202 31.3084C305.28 30.8359 305.674 30.5996 306.068 30.5996C306.54 30.6784 306.777 31.0721 306.777 31.4659L304.808 46.4284C305.044 47.6096 306.225 55.8784 300.24 60.3671C300.083 60.4459 299.925 60.4459 299.768 60.4459Z" fill="#131900"/>
<path d="M313.315 61.7833C311.346 61.8621 309.378 61.0746 308.039 59.5783C306.7 58.0033 305.755 54.8533 308.511 49.1833C313.079 39.7333 326.466 35.1658 327.096 35.0083C327.49 34.8508 327.963 35.0871 328.12 35.4808C328.278 35.8746 328.041 36.3471 327.648 36.5046C327.49 36.5046 314.26 41.0721 310.008 49.8921C308.118 53.7508 307.96 56.8221 309.378 58.5546C310.638 60.0508 313.158 60.5233 316.071 59.8146C321.978 58.3183 328.435 50.3646 328.514 50.2858C328.671 49.8921 329.144 49.7346 329.538 49.8921C329.931 50.0496 330.089 50.5221 329.931 50.9158C329.853 50.9946 329.853 51.0733 329.695 51.1521C329.38 51.4671 322.844 59.4996 316.465 61.2321C315.363 61.6258 314.339 61.7833 313.315 61.7833Z" fill="#131900"/>
<path d="M317.41 72.3375C315.835 72.4163 314.338 71.7863 313.236 70.605C308.59 65.7225 309.771 60.9188 309.771 60.6825C309.85 60.2888 310.322 59.9738 310.716 60.1313C311.11 60.21 311.425 60.6825 311.267 61.0763C311.267 61.2338 310.322 65.3288 314.338 69.5025C318.197 73.5188 326.466 66.4313 326.545 66.3525C326.86 66.0375 327.411 66.1163 327.647 66.4313C327.962 66.7463 327.883 67.2975 327.568 67.5338C327.332 67.8488 322.056 72.3375 317.41 72.3375Z" fill="#131900"/>
<path d="M312.53 78.1687C312.294 78.1687 312.057 78.0112 311.9 77.8537C311.821 77.6962 310.01 74.94 312.845 70.6875C313.081 70.2937 313.554 70.215 313.947 70.4513C314.341 70.6875 314.42 71.16 314.184 71.5537C311.979 74.8612 313.16 76.9087 313.239 76.9875C313.475 77.3812 313.396 77.8537 313.002 78.09C312.845 78.09 312.687 78.1687 312.53 78.1687Z" fill="#131900"/>
<path d="M304.02 47.1368C303.547 47.2156 303.153 46.9006 303.075 46.5068C302.996 46.1131 303.311 45.6406 303.705 45.5618L308.43 43.9868C308.823 43.8293 309.296 44.0656 309.453 44.4593C309.611 44.8531 309.375 45.3256 308.981 45.4831L304.256 47.0581C304.177 47.1368 304.098 47.1368 304.02 47.1368Z" fill="#131900"/>
<path d="M284.413 42.6484C281.027 47.8459 276.696 52.3347 271.734 56.0359L285.831 93.1272C285.831 93.1272 293.784 88.1659 303.156 82.7322L284.413 42.6484Z" fill="#FFC2A7"/>
<path d="M146.051 80.9237C146.051 80.9237 150.855 77.4587 162.273 77.4587L183.3 76.5137L183.93 126.52L152.43 136.364L146.051 80.9237Z" fill="#00BB8E"/>
<path d="M271.733 56.0391L223.774 76.1203L183.297 76.5141L183.927 126.52L219.994 126.914C219.994 126.914 239.052 128.332 253.148 117.543L285.829 93.2091L271.733 56.0391Z" fill="#FFC2A7"/>
<path d="M109.822 126.832C106.672 126.832 104.546 125.966 103.601 124.155C99.2693 115.886 121.871 91.7885 124.469 89.111C124.784 88.796 125.257 88.796 125.572 89.111C125.887 89.426 125.887 89.8985 125.572 90.2135C118.721 97.3798 101.711 117.304 104.939 123.446C105.884 125.179 108.641 125.73 113.129 125.021C122.658 123.525 132.581 117.382 140.771 110.295C140.456 107.932 140.534 105.57 141.086 103.207C142.976 94.6235 149.433 86.1973 155.497 84.4648C157.466 83.9135 158.962 83.9923 159.749 84.8585C160.537 85.7248 160.694 87.1423 159.986 89.111C158.332 93.9935 151.559 102.892 142.503 110.846C142.976 112.894 144.078 114.784 145.653 116.122C149.827 119.666 159.828 122.029 183.374 112.894C183.768 112.736 184.241 112.894 184.398 113.287C184.556 113.681 184.398 114.154 183.926 114.311C170.538 119.509 152.819 124.312 144.629 117.304C142.976 115.886 141.794 113.996 141.164 111.949C132.896 118.957 122.973 125.021 113.366 126.517C112.263 126.754 111.003 126.832 109.822 126.832ZM157.702 85.5673C157.151 85.5673 156.599 85.646 156.048 85.8823C150.536 87.4573 144.472 95.4898 142.739 103.444C142.346 105.255 142.188 107.145 142.346 108.956C150.772 101.396 156.993 93.1273 158.568 88.5598C159.041 87.221 159.041 86.276 158.647 85.8823C158.332 85.646 158.017 85.5673 157.702 85.5673Z" fill="#045B4E"/>
<path d="M101.003 170.932C100.845 170.932 100.767 170.932 100.609 170.854C100.215 170.617 100.058 170.145 100.294 169.83C105.098 160.852 106.043 154.631 103.208 151.324C97.144 144.315 75.6453 151.954 75.409 152.032C75.0153 152.19 74.5428 151.954 74.3853 151.56C74.2278 151.166 74.464 150.694 74.8578 150.536C75.8028 150.221 97.6165 142.425 104.389 150.221C107.775 154.08 106.83 160.931 101.712 170.539C101.554 170.775 101.318 170.932 101.003 170.932Z" fill="#FED490"/>
<path d="M120.216 128.014C122.738 128.014 124.783 125.969 124.783 123.446C124.783 120.924 122.738 118.879 120.216 118.879C117.693 118.879 115.648 120.924 115.648 123.446C115.648 125.969 117.693 128.014 120.216 128.014Z" fill="#FED490"/>
<path d="M155.499 135.654C155.42 135.654 155.263 135.654 155.184 135.576C154.79 135.418 154.633 134.946 154.79 134.552C154.869 134.473 159.673 123.921 158.019 115.101C156.287 106.044 149.987 84.8607 149.908 84.7032C149.75 84.3095 149.987 83.837 150.459 83.6795C150.853 83.522 151.325 83.7582 151.483 84.2307C151.562 84.467 157.862 105.651 159.594 114.786C161.405 124.157 156.444 134.788 156.287 135.261C156.129 135.497 155.814 135.654 155.499 135.654Z" fill="#1C7044"/>
<path d="M127.067 150.93H126.909C126.515 150.851 126.2 150.457 126.279 150.064C126.358 149.827 130.768 125.179 124.783 114.075C124.547 113.681 124.704 113.209 125.098 112.972C125.492 112.736 125.964 112.894 126.2 113.287C132.5 124.942 128.09 149.355 127.854 150.379C127.854 150.615 127.46 150.93 127.067 150.93Z" fill="#1C7044"/>
<path d="M96.0431 103.918C95.5706 103.996 95.1768 103.681 95.0981 103.288C95.0193 102.815 95.3343 102.421 95.7281 102.343C96.2006 102.185 107.856 97.6176 115.416 101.555C115.809 101.791 115.967 102.264 115.731 102.658C115.494 103.051 115.022 103.209 114.628 102.973C107.777 99.3501 96.3581 103.76 96.2793 103.839C96.2006 103.839 96.1218 103.918 96.0431 103.918Z" fill="#1C7044"/>
<path d="M273.703 63.44C273.31 63.44 272.995 63.2038 272.916 62.8888C272.128 60.0538 272.207 57.0613 273.152 54.305C273.31 53.9113 273.782 53.675 274.176 53.8325C274.57 53.99 274.806 54.4625 274.648 54.8563C273.861 57.2975 273.782 59.8963 274.412 62.4163C274.57 62.81 274.333 63.2825 273.94 63.44C273.861 63.44 273.782 63.44 273.703 63.44Z" fill="#131900"/>
<path d="M288.902 90.1345C287.17 90.1345 285.516 89.8195 283.941 89.1895C283.547 89.032 283.311 88.5595 283.547 88.1657C283.705 87.772 284.177 87.5357 284.571 87.772C288.115 89.2682 292.446 88.1657 292.446 88.1657C292.84 88.0082 293.312 88.3232 293.391 88.717C293.549 89.1107 293.312 89.5832 292.84 89.662C291.58 89.977 290.241 90.1345 288.902 90.1345Z" fill="#131900"/>
<path d="M213.3 82.025C212.985 82.025 212.67 81.8675 212.592 81.5525C212.434 81.1587 212.592 80.6862 212.985 80.5287L223.459 75.41C223.853 75.2525 224.325 75.41 224.562 75.8037C224.719 76.1975 224.562 76.67 224.168 76.9062L213.694 82.025C213.537 82.025 213.379 82.025 213.3 82.025Z" fill="#131900"/>
<path d="M81.2364 204.323C81.0002 204.323 80.8427 204.244 80.6852 204.087L65.9589 189.597C65.6439 189.282 65.6439 188.809 65.9589 188.494C66.2739 188.179 66.7464 188.179 67.0614 188.494L81.7877 202.984C82.1027 203.299 82.1027 203.772 81.7877 204.087C81.6302 204.244 81.4727 204.323 81.2364 204.323Z" fill="#131900"/>
<path d="M158.651 306.305C158.257 306.305 157.942 306.068 157.863 305.675C157.785 305.517 154.241 289.452 146.76 281.577C146.445 281.262 146.445 280.79 146.76 280.475C147.075 280.16 147.547 280.16 147.862 280.475C155.658 288.665 159.202 304.651 159.36 305.281C159.438 305.675 159.202 306.147 158.808 306.226C158.73 306.305 158.73 306.305 158.651 306.305Z" fill="#131900"/>
<path d="M141.873 324.1C141.401 324.1 141.086 323.785 141.086 323.312C141.086 323.076 141.165 322.84 141.401 322.682C141.48 322.603 147.937 316.855 149.67 309.925C151.402 302.995 147.78 294.647 147.701 294.568C147.543 294.175 147.701 293.702 148.095 293.545C148.488 293.387 148.961 293.545 149.118 293.938C149.276 294.332 152.977 302.758 151.166 310.318C149.355 317.878 142.74 323.706 142.425 323.942C142.267 324.021 142.031 324.1 141.873 324.1Z" fill="#131900"/>
<path d="M124.077 299.61C123.683 299.61 123.368 299.374 123.289 299.059C122.029 294.885 119.509 291.105 116.123 288.349C115.808 288.112 115.729 287.561 115.965 287.246C116.202 286.931 116.753 286.852 117.068 287.089C120.769 290.081 123.447 294.097 124.864 298.586C125.022 298.98 124.785 299.452 124.392 299.61C124.313 299.61 124.234 299.61 124.077 299.61Z" fill="#131900"/>
<path d="M131.877 55.3242C130.223 57.4505 128.018 59.0255 125.498 59.9705C122.505 61.073 119.198 60.9155 116.284 59.5767C117.072 63.9867 113.292 69.578 111.323 68.633C111.323 68.633 109.59 62.8055 104.472 64.4592C100.14 65.8767 101.4 73.5155 105.023 75.0117C105.574 75.248 106.204 75.3267 106.834 75.248C106.834 75.248 111.717 81.3117 108.33 84.068C117.465 89.108 128.963 85.8005 134.003 76.6655C137.783 69.8142 136.995 61.3092 131.877 55.3242Z" fill="#FFC2A7"/>
<path d="M131.872 55.3245C130.218 57.4507 128.013 59.0257 125.493 59.9707C122.501 61.0732 119.193 60.9157 116.28 59.577C117.067 63.987 113.287 69.5782 111.318 68.6332C111.318 68.6332 109.586 62.8057 104.467 64.4595C100.136 65.877 101.396 73.5157 105.018 75.012C105.57 75.2482 106.2 75.327 106.83 75.2482C106.83 75.2482 111.712 81.312 108.326 84.0682C105.57 82.4932 103.286 80.2882 101.553 77.532C100.53 75.8782 99.7421 73.9882 99.2696 72.0982C96.9071 61.9395 103.207 51.7807 113.366 49.4182C120.217 47.8432 127.305 50.127 131.872 55.3245Z" fill="#FFC2A7"/>
<path d="M143.656 68.4658C143.7 67.0312 141.129 65.7873 137.912 65.6873C134.695 65.5873 132.051 66.6692 132.007 68.1037C131.962 69.5383 134.534 70.7822 137.75 70.8822C140.967 70.9822 143.611 69.9003 143.656 68.4658Z" fill="#FFC2A7"/>
<path d="M140.22 44.4597C132.345 32.6472 116.516 39.2622 117.776 44.4597C117.776 44.4597 102.42 47.2947 97.0649 56.1934C92.7337 63.2809 91.5524 76.5109 108.326 84.0709C111.712 81.3147 106.83 75.2509 106.83 75.2509C106.2 75.3297 105.57 75.2509 105.019 75.0147C101.396 73.5184 100.136 65.8797 104.467 64.4622C109.586 62.8084 111.319 68.6359 111.319 68.6359C113.366 69.5809 117.146 63.9897 116.28 59.5797C130.455 63.0447 146.992 54.7759 140.22 44.4597Z" fill="url(#paint3_linear_315_422)"/>
<path d="M107.773 71.7085H107.695H107.537H107.301C107.38 71.7085 107.301 71.7085 107.222 71.7085C106.986 71.6297 106.75 71.551 106.592 71.3935C106.435 71.3147 106.356 71.1572 106.277 70.9997C106.198 70.921 106.198 70.8422 106.198 70.7635C106.198 70.6847 106.12 70.606 106.12 70.5272C106.12 70.3697 106.12 70.6847 106.12 70.4485C106.041 70.0547 106.198 69.661 106.435 69.346C106.592 69.1885 106.75 69.031 106.986 68.9522C107.143 68.8735 107.38 68.7947 107.616 68.8735C108.088 68.8735 108.403 68.5585 108.403 68.086C108.403 68.0072 108.403 67.9285 108.403 67.8497C108.088 66.4322 106.671 65.566 105.253 65.881C104.23 66.1172 103.521 66.9047 103.285 67.8497C103.206 68.2435 103.442 68.716 103.836 68.7947C104.23 68.8735 104.702 68.6372 104.781 68.2435C104.781 68.0072 104.938 67.771 105.175 67.6135L105.332 67.5347C105.332 67.5347 105.568 67.456 105.411 67.456L105.647 67.3772C105.49 67.3772 105.726 67.3772 105.726 67.3772C105.726 67.3772 105.962 67.3772 105.805 67.3772L106.041 67.456C106.198 67.5347 105.962 67.3772 106.12 67.5347L106.356 67.6922C106.277 67.6135 106.435 67.771 106.435 67.771C106.435 67.771 106.592 67.9285 106.513 67.8497C106.513 67.9285 106.592 67.9285 106.592 68.0072C106.671 68.086 106.671 68.086 106.592 68.086C106.513 68.086 106.592 68.086 106.592 68.1647C106.592 68.2435 106.592 68.2435 106.671 68.3222L107.458 67.2985C105.805 67.2985 104.387 68.6372 104.387 70.291C104.387 71.9447 105.726 73.3622 107.38 73.3622C107.616 73.3622 107.852 73.3622 108.088 73.2835C108.561 73.2047 108.797 72.7322 108.64 72.2597C108.64 71.7872 108.167 71.551 107.773 71.7085Z" fill="#131900"/>
<path d="M127.385 77.5354L127.07 77.6142C126.991 77.6142 127.149 77.6142 126.991 77.6142H126.44H126.282C126.282 77.6142 126.046 77.6142 126.125 77.6142L125.967 77.5354C125.889 77.5354 125.731 77.4567 125.652 77.4567L125.495 77.3779L125.18 77.2204C125.101 77.1417 125.022 77.0629 124.944 77.0629C124.865 77.0629 125.022 77.1417 124.944 77.0629L124.786 76.9842C124.629 76.8267 124.471 76.6692 124.392 76.5117L124.314 76.3542L124.156 76.1179C124.156 76.0392 124.156 76.0392 124.077 75.9604C123.999 75.8029 123.999 75.8817 124.077 75.9604L123.999 75.6454C123.92 75.2517 123.447 74.9367 123.054 75.0942C122.66 75.1729 122.345 75.6454 122.502 76.0392C123.211 78.4804 125.731 79.8979 128.094 79.1892C128.566 79.1104 128.802 78.6379 128.645 78.1654C128.409 77.7717 127.936 77.5354 127.385 77.5354Z" fill="#131900"/>
<path d="M120.217 76.7489C122.028 76.9064 123.839 76.1977 125.02 74.7802C125.335 74.4652 125.335 73.9927 125.02 73.6777C124.705 73.3627 124.233 73.3627 123.918 73.6777C123.76 73.8352 123.682 73.9927 123.524 74.0714L123.367 74.2289L123.288 74.3077C123.209 74.3864 123.367 74.2289 123.288 74.3077C123.209 74.3864 122.973 74.5439 122.815 74.6227C122.658 74.7014 122.658 74.7014 122.579 74.7802L122.5 74.8589C122.5 74.8589 122.343 74.9377 122.422 74.8589C122.5 74.7802 122.422 74.8589 122.343 74.8589H122.185L121.87 74.9377C121.713 75.0164 121.477 75.0164 121.319 75.0952C121.24 75.0952 121.24 75.0952 121.319 75.0952C121.24 75.0952 121.24 75.0952 121.162 75.0952H120.925C120.689 75.0952 120.532 75.0952 120.295 75.0952C119.823 75.0952 119.508 75.4102 119.508 75.8827C119.508 76.3552 119.823 76.6702 120.295 76.6702L120.217 76.7489Z" fill="#131900"/>
<path d="M130.861 67.9815C132.036 67.414 132.452 65.8428 131.789 64.472C131.127 63.1012 129.638 62.45 128.463 63.0175C127.288 63.5849 126.873 65.1562 127.535 66.5269C128.197 67.8977 129.686 68.5489 130.861 67.9815Z" fill="white"/>
<path d="M130.919 67.0576C131.703 66.6793 131.985 65.6424 131.55 64.7416C131.115 63.8408 130.127 63.4172 129.344 63.7955C128.561 64.1738 128.278 65.2107 128.713 66.1115C129.149 67.0123 130.136 67.4359 130.919 67.0576Z" fill="#005045"/>
<path d="M135.731 70.3687C135.416 70.2899 135.101 70.2112 134.786 70.1324L134.944 70.2112C134.629 70.0537 134.314 69.8962 133.999 69.6599L134.156 69.8174C133.92 69.6599 133.684 69.4237 133.526 69.1874C133.211 68.8724 132.739 68.8724 132.424 69.1874C132.109 69.5024 132.109 69.9749 132.424 70.2899C133.211 71.1562 134.235 71.7074 135.337 71.9437C135.574 72.0224 135.731 71.9437 135.968 71.8649C136.125 71.7862 136.283 71.6287 136.361 71.3924C136.44 71.1562 136.361 70.9987 136.282 70.7624C136.125 70.5262 135.967 70.3687 135.731 70.3687Z" fill="#131900"/>
<path d="M61.6309 376.943C61.3946 376.943 61.1584 376.865 61.0009 376.628C60.8434 376.471 60.7646 376.156 60.8434 375.92C62.8121 366.627 66.5921 360.485 72.0259 357.413C75.8059 355.366 80.2946 354.893 84.4684 356.075C86.4371 352.846 96.9896 337.096 109.905 338.041C121.875 338.907 124.237 353.633 124.71 358.516C126.442 357.177 128.332 355.996 130.301 355.051C135.656 352.531 140.775 352.373 145.027 354.657C149.28 356.941 151.957 361.272 152.666 367.257C152.981 370.013 152.981 372.848 152.508 375.526C152.43 375.92 152.115 376.156 151.721 376.156H86.2009L61.6309 376.943ZM79.7434 357.177C77.3021 357.177 74.8609 357.728 72.7346 358.91C67.9309 361.587 64.5446 367.1 62.5759 375.29L86.2009 374.66H151.091C151.485 371.825 152.351 360.406 144.318 356.153C135.105 351.271 124.71 360.721 124.552 360.878C124.237 361.193 123.765 361.193 123.45 360.878C123.292 360.721 123.213 360.563 123.213 360.327C123.213 360.17 122.662 340.797 109.747 339.852C96.5959 338.907 85.5709 357.413 85.4921 357.65C85.3346 357.965 84.8621 358.122 84.5471 357.965C82.9721 357.413 81.3971 357.177 79.7434 357.177Z" fill="#1C7044"/>
<path d="M189.443 59.6591H235.669C235.669 59.6591 237.559 49.1854 230.629 45.5629C223.699 41.9404 216.06 48.9491 216.06 48.9491C216.06 48.9491 215.745 34.6954 206.059 33.9079C196.373 33.1204 188.419 46.7441 188.419 46.7441C188.419 46.7441 175.898 42.0191 172.039 60.1316L189.443 59.6591Z" fill="#FEFFFD"/>
<defs>
<linearGradient id="paint0_linear_315_422" x1="258.611" y1="80.6856" x2="187.681" y2="253.715" gradientUnits="userSpaceOnUse">
<stop stop-color="#BFFF00"/>
<stop offset="1" stop-color="#B6EF0B"/>
</linearGradient>
<linearGradient id="paint1_linear_315_422" x1="216.533" y1="102.537" x2="215.57" y2="208.743" gradientUnits="userSpaceOnUse">
<stop stop-color="#0A6B5B"/>
<stop offset="0.78" stop-color="#005146"/>
<stop offset="0.91" stop-color="#005045"/>
</linearGradient>
<linearGradient id="paint2_linear_315_422" x1="223.395" y1="110.592" x2="169.703" y2="202.225" gradientUnits="userSpaceOnUse">
<stop stop-color="#0A6B5B"/>
<stop offset="0.78" stop-color="#005146"/>
<stop offset="0.91" stop-color="#005045"/>
</linearGradient>
<linearGradient id="paint3_linear_315_422" x1="100.878" y1="48.5517" x2="145.951" y2="77.9015" gradientUnits="userSpaceOnUse">
<stop stop-color="#0A6B5B"/>
<stop offset="0.78" stop-color="#005146"/>
<stop offset="0.91" stop-color="#005045"/>
</linearGradient>
</defs>
</svg>
